<svg class="rich-terminal" viewBox="0 0 1238 879.5999999999999" xmlns="http://www.w3.org/2000/svg">
    <!-- Generated with Rich https://www.textualize.io -->
    <style>

    @font-face {
        font-family: "Fira Code";
        src: local("FiraCode-Regular"),
                url("https://cdnjs.cloudflare.com/ajax/libs/firacode/6.2.0/woff2/FiraCode-Regular.woff2") format("woff2"),
                url("https://cdnjs.cloudflare.com/ajax/libs/firacode/6.2.0/woff/FiraCode-Regular.woff") format("woff");
        font-style: normal;
        font-weight: 400;
    }
    @font-face {
        font-family: "Fira Code";
        src: local("FiraCode-Bold"),
                url("https://cdnjs.cloudflare.com/ajax/libs/firacode/6.2.0/woff2/FiraCode-Bold.woff2") format("woff2"),
                url("https://cdnjs.cloudflare.com/ajax/libs/firacode/6.2.0/woff/FiraCode-Bold.woff") format("woff");
        font-style: bold;
        font-weight: 700;
    }

    .terminal-2273357775-matrix {
        font-family: Fira Code, monospace;
        font-size: 20px;
        line-height: 24.4px;
        font-variant-east-asian: full-width;
    }

    .terminal-2273357775-title {
        font-size: 18px;
        font-weight: bold;
        font-family: arial;
    }

    .terminal-2273357775-r1 { fill: #c5c8c6 }
.terminal-2273357775-r2 { fill: #00ffff;font-weight: bold }
.terminal-2273357775-r3 { fill: #c0c0c0;font-weight: bold }
.terminal-2273357775-r4 { fill: #7e7e7e;font-weight: bold }
.terminal-2273357775-r5 { fill: #001a1a;font-weight: bold }
.terminal-2273357775-r6 { fill: #c0c0c0 }
.terminal-2273357775-r7 { fill: #cbcc00 }
.terminal-2273357775-r8 { fill: #ffff00 }
.terminal-2273357775-r9 { fill: #008000 }
.terminal-2273357775-r10 { fill: #646464 }
.terminal-2273357775-r11 { fill: #999999 }
.terminal-2273357775-r12 { fill: #999999;font-weight: bold }
    </style>

    <defs>
    <clipPath id="terminal-2273357775-clip-terminal">
      <rect x="0" y="0" width="1219.0" height="828.5999999999999" />
    </clipPath>
    <clipPath id="terminal-2273357775-line-0">
    <rect x="0" y="1.5" width="1220" height="24.65"/>
            </clipPath>
<clipPath id="terminal-2273357775-line-1">
    <rect x="0" y="25.9" width="1220" height="24.65"/>
            </clipPath>
<clipPath id="terminal-2273357775-line-2">
    <rect x="0" y="50.3" width="1220" height="24.65"/>
            </clipPath>
<clipPath id="terminal-2273357775-line-3">
    <rect x="0" y="74.7" width="1220" height="24.65"/>
            </clipPath>
<clipPath id="terminal-2273357775-line-4">
    <rect x="0" y="99.1" width="1220" height="24.65"/>
            </clipPath>
<clipPath id="terminal-2273357775-line-5">
    <rect x="0" y="123.5" width="1220" height="24.65"/>
            </clipPath>
<clipPath id="terminal-2273357775-line-6">
    <rect x="0" y="147.9" width="1220" height="24.65"/>
            </clipPath>
<clipPath id="terminal-2273357775-line-7">
    <rect x="0" y="172.3" width="1220" height="24.65"/>
            </clipPath>
<clipPath id="terminal-2273357775-line-8">
    <rect x="0" y="196.7" width="1220" height="24.65"/>
            </clipPath>
<clipPath id="terminal-2273357775-line-9">
    <rect x="0" y="221.1" width="1220" height="24.65"/>
            </clipPath>
<clipPath id="terminal-2273357775-line-10">
    <rect x="0" y="245.5" width="1220" height="24.65"/>
            </clipPath>
<clipPath id="terminal-2273357775-line-11">
    <rect x="0" y="269.9" width="1220" height="24.65"/>
            </clipPath>
<clipPath id="terminal-2273357775-line-12">
    <rect x="0" y="294.3" width="1220" height="24.65"/>
            </clipPath>
<clipPath id="terminal-2273357775-line-13">
    <rect x="0" y="318.7" width="1220" height="24.65"/>
            </clipPath>
<clipPath id="terminal-2273357775-line-14">
    <rect x="0" y="343.1" width="1220" height="24.65"/>
            </clipPath>
<clipPath id="terminal-2273357775-line-15">
    <rect x="0" y="367.5" width="1220" height="24.65"/>
            </clipPath>
<clipPath id="terminal-2273357775-line-16">
    <rect x="0" y="391.9" width="1220" height="24.65"/>
            </clipPath>
<clipPath id="terminal-2273357775-line-17">
    <rect x="0" y="416.3" width="1220" height="24.65"/>
            </clipPath>
<clipPath id="terminal-2273357775-line-18">
    <rect x="0" y="440.7" width="1220" height="24.65"/>
            </clipPath>
<clipPath id="terminal-2273357775-line-19">
    <rect x="0" y="465.1" width="1220" height="24.65"/>
            </clipPath>
<clipPath id="terminal-2273357775-line-20">
    <rect x="0" y="489.5" width="1220" height="24.65"/>
            </clipPath>
<clipPath id="terminal-2273357775-line-21">
    <rect x="0" y="513.9" width="1220" height="24.65"/>
            </clipPath>
<clipPath id="terminal-2273357775-line-22">
    <rect x="0" y="538.3" width="1220" height="24.65"/>
            </clipPath>
<clipPath id="terminal-2273357775-line-23">
    <rect x="0" y="562.7" width="1220" height="24.65"/>
            </clipPath>
<clipPath id="terminal-2273357775-line-24">
    <rect x="0" y="587.1" width="1220" height="24.65"/>
            </clipPath>
<clipPath id="terminal-2273357775-line-25">
    <rect x="0" y="611.5" width="1220" height="24.65"/>
            </clipPath>
<clipPath id="terminal-2273357775-line-26">
    <rect x="0" y="635.9" width="1220" height="24.65"/>
            </clipPath>
<clipPath id="terminal-2273357775-line-27">
    <rect x="0" y="660.3" width="1220" height="24.65"/>
            </clipPath>
<clipPath id="terminal-2273357775-line-28">
    <rect x="0" y="684.7" width="1220" height="24.65"/>
            </clipPath>
<clipPath id="terminal-2273357775-line-29">
    <rect x="0" y="709.1" width="1220" height="24.65"/>
            </clipPath>
<clipPath id="terminal-2273357775-line-30">
    <rect x="0" y="733.5" width="1220" height="24.65"/>
            </clipPath>
<clipPath id="terminal-2273357775-line-31">
    <rect x="0" y="757.9" width="1220" height="24.65"/>
            </clipPath>
<clipPath id="terminal-2273357775-line-32">
    <rect x="0" y="782.3" width="1220" height="24.65"/>
            </clipPath>
    </defs>

    <rect fill="#292929" stroke="rgba(255,255,255,0.35)" stroke-width="1" x="1" y="1" width="1236" height="877.6" rx="8"/><text class="terminal-2273357775-title" fill="#c5c8c6" text-anchor="middle" x="618" y="27">Edge&#160;of&#160;the&#160;Unknown</text>
            <g transform="translate(26,22)">
            <circle cx="0" cy="0" r="7" fill="#ff5f57"/>
            <circle cx="22" cy="0" r="7" fill="#febc2e"/>
            <circle cx="44" cy="0" r="7" fill="#28c840"/>
            </g>
        
    <g transform="translate(9, 41)" clip-path="url(#terminal-2273357775-clip-terminal)">
    <rect fill="#000000" x="0" y="1.5" width="1220" height="24.65" shape-rendering="crispEdges"/><rect fill="#000000" x="0" y="25.9" width="24.4" height="24.65" shape-rendering="crispEdges"/><rect fill="#000000" x="24.4" y="25.9" width="488" height="24.65" shape-rendering="crispEdges"/><rect fill="#000000" x="512.4" y="25.9" width="73.2" height="24.65" shape-rendering="crispEdges"/><rect fill="#000000" x="585.6" y="25.9" width="97.6" height="24.65" shape-rendering="crispEdges"/><rect fill="#000000" x="683.2" y="25.9" width="512.4" height="24.65" shape-rendering="crispEdges"/><rect fill="#000000" x="1195.6" y="25.9" width="24.4" height="24.65" shape-rendering="crispEdges"/><rect fill="#000000" x="0" y="50.3" width="24.4" height="24.65" shape-rendering="crispEdges"/><rect fill="#000000" x="24.4" y="50.3" width="1171.2" height="24.65" shape-rendering="crispEdges"/><rect fill="#000000" x="1195.6" y="50.3" width="24.4" height="24.65" shape-rendering="crispEdges"/><rect fill="#000000" x="0" y="74.7" width="24.4" height="24.65" shape-rendering="crispEdges"/><rect fill="#181c20" x="24.4" y="74.7" width="134.2" height="24.65" shape-rendering="crispEdges"/><rect fill="#181c20" x="158.6" y="74.7" width="73.2" height="24.65" shape-rendering="crispEdges"/><rect fill="#181c20" x="231.8" y="74.7" width="183" height="24.65" shape-rendering="crispEdges"/><rect fill="#181c20" x="414.8" y="74.7" width="109.8" height="24.65" shape-rendering="crispEdges"/><rect fill="#181c20" x="524.6" y="74.7" width="61" height="24.65" shape-rendering="crispEdges"/><rect fill="#181c20" x="585.6" y="74.7" width="97.6" height="24.65" shape-rendering="crispEdges"/><rect fill="#181c20" x="683.2" y="74.7" width="512.4" height="24.65" shape-rendering="crispEdges"/><rect fill="#000000" x="1195.6" y="74.7" width="24.4" height="24.65" shape-rendering="crispEdges"/><rect fill="#000000" x="0" y="99.1" width="24.4" height="24.65" shape-rendering="crispEdges"/><rect fill="#00cccc" x="24.4" y="99.1" width="134.2" height="24.65" shape-rendering="crispEdges"/><rect fill="#00cccc" x="158.6" y="99.1" width="73.2" height="24.65" shape-rendering="crispEdges"/><rect fill="#00cccc" x="231.8" y="99.1" width="183" height="24.65" shape-rendering="crispEdges"/><rect fill="#00cccc" x="414.8" y="99.1" width="109.8" height="24.65" shape-rendering="crispEdges"/><rect fill="#00cccc" x="524.6" y="99.1" width="61" height="24.65" shape-rendering="crispEdges"/><rect fill="#00cccc" x="585.6" y="99.1" width="97.6" height="24.65" shape-rendering="crispEdges"/><rect fill="#00cccc" x="683.2" y="99.1" width="512.4" height="24.65" shape-rendering="crispEdges"/><rect fill="#000000" x="1195.6" y="99.1" width="24.4" height="24.65" shape-rendering="crispEdges"/><rect fill="#000000" x="0" y="123.5" width="24.4" height="24.65" shape-rendering="crispEdges"/><rect fill="#131313" x="24.4" y="123.5" width="134.2" height="24.65" shape-rendering="crispEdges"/><rect fill="#131313" x="158.6" y="123.5" width="73.2" height="24.65" shape-rendering="crispEdges"/><rect fill="#131313" x="231.8" y="123.5" width="183" height="24.65" shape-rendering="crispEdges"/><rect fill="#131313" x="414.8" y="123.5" width="109.8" height="24.65" shape-rendering="crispEdges"/><rect fill="#131313" x="524.6" y="123.5" width="61" height="24.65" shape-rendering="crispEdges"/><rect fill="#131313" x="585.6" y="123.5" width="12.2" height="24.65" shape-rendering="crispEdges"/><rect fill="#131313" x="597.8" y="123.5" width="36.6" height="24.65" shape-rendering="crispEdges"/><rect fill="#131313" x="634.4" y="123.5" width="48.8" height="24.65" shape-rendering="crispEdges"/><rect fill="#131313" x="683.2" y="123.5" width="512.4" height="24.65" shape-rendering="crispEdges"/><rect fill="#000000" x="1195.6" y="123.5" width="24.4" height="24.65" shape-rendering="crispEdges"/><rect fill="#000000" x="0" y="147.9" width="24.4" height="24.65" shape-rendering="crispEdges"/><rect fill="#0b0b0b" x="24.4" y="147.9" width="134.2" height="24.65" shape-rendering="crispEdges"/><rect fill="#0b0b0b" x="158.6" y="147.9" width="73.2" height="24.65" shape-rendering="crispEdges"/><rect fill="#0b0b0b" x="231.8" y="147.9" width="183" height="24.65" shape-rendering="crispEdges"/><rect fill="#0b0b0b" x="414.8" y="147.9" width="109.8" height="24.65" shape-rendering="crispEdges"/><rect fill="#0b0b0b" x="524.6" y="147.9" width="61" height="24.65" shape-rendering="crispEdges"/><rect fill="#0b0b0b" x="585.6" y="147.9" width="12.2" height="24.65" shape-rendering="crispEdges"/><rect fill="#0b0b0b" x="597.8" y="147.9" width="48.8" height="24.65" shape-rendering="crispEdges"/><rect fill="#0b0b0b" x="646.6" y="147.9" width="36.6" height="24.65" shape-rendering="crispEdges"/><rect fill="#0b0b0b" x="683.2" y="147.9" width="512.4" height="24.65" shape-rendering="crispEdges"/><rect fill="#000000" x="1195.6" y="147.9" width="24.4" height="24.65" shape-rendering="crispEdges"/><rect fill="#000000" x="0" y="172.3" width="24.4" height="24.65" shape-rendering="crispEdges"/><rect fill="#000000" x="24.4" y="172.3" width="1171.2" height="24.65" shape-rendering="crispEdges"/><rect fill="#000000" x="1195.6" y="172.3" width="24.4" height="24.65" shape-rendering="crispEdges"/><rect fill="#000000" x="0" y="196.7" width="24.4" height="24.65" shape-rendering="crispEdges"/><rect fill="#000000" x="24.4" y="196.7" width="12.2" height="24.65" shape-rendering="crispEdges"/><rect fill="#000000" x="36.6" y="196.7" width="1146.8" height="24.65" shape-rendering="crispEdges"/><rect fill="#000000" x="1183.4" y="196.7" width="12.2" height="24.65" shape-rendering="crispEdges"/><rect fill="#000000" x="1195.6" y="196.7" width="24.4" height="24.65" shape-rendering="crispEdges"/><rect fill="#000000" x="0" y="221.1" width="24.4" height="24.65" shape-rendering="crispEdges"/><rect fill="#000000" x="24.4" y="221.1" width="12.2" height="24.65" shape-rendering="crispEdges"/><rect fill="#000000" x="36.6" y="221.1" width="12.2" height="24.65" shape-rendering="crispEdges"/><rect fill="#000000" x="48.8" y="221.1" width="256.2" height="24.65" shape-rendering="crispEdges"/><rect fill="#000000" x="305" y="221.1" width="866.2" height="24.65" shape-rendering="crispEdges"/><rect fill="#000000" x="1171.2" y="221.1" width="12.2" height="24.65" shape-rendering="crispEdges"/><rect fill="#000000" x="1183.4" y="221.1" width="12.2" height="24.65" shape-rendering="crispEdges"/><rect fill="#000000" x="1195.6" y="221.1" width="24.4" height="24.65" shape-rendering="crispEdges"/><rect fill="#000000" x="0" y="245.5" width="24.4" height="24.65" shape-rendering="crispEdges"/><rect fill="#000000" x="24.4" y="245.5" width="12.2" height="24.65" shape-rendering="crispEdges"/><rect fill="#000000" x="36.6" y="245.5" width="12.2" height="24.65" shape-rendering="crispEdges"/><rect fill="#000000" x="48.8" y="245.5" width="366" height="24.65" shape-rendering="crispEdges"/><rect fill="#000000" x="414.8" y="245.5" width="109.8" height="24.65" shape-rendering="crispEdges"/><rect fill="#000000" x="524.6" y="245.5" width="646.6" height="24.65" shape-rendering="crispEdges"/><rect fill="#000000" x="1171.2" y="245.5" width="12.2" height="24.65" shape-rendering="crispEdges"/><rect fill="#000000" x="1183.4" y="245.5" width="12.2" height="24.65" shape-rendering="crispEdges"/><rect fill="#000000" x="1195.6" y="245.5" width="24.4" height="24.65" shape-rendering="crispEdges"/><rect fill="#000000" x="0" y="269.9" width="24.4" height="24.65" shape-rendering="crispEdges"/><rect fill="#000000" x="24.4" y="269.9" width="12.2" height="24.65" shape-rendering="crispEdges"/><rect fill="#000000" x="36.6" y="269.9" width="12.2" height="24.65" shape-rendering="crispEdges"/><rect fill="#000000" x="48.8" y="269.9" width="195.2" height="24.65" shape-rendering="crispEdges"/><rect fill="#000000" x="244" y="269.9" width="24.4" height="24.65" shape-rendering="crispEdges"/><rect fill="#000000" x="268.4" y="269.9" width="256.2" height="24.65" shape-rendering="crispEdges"/><rect fill="#000000" x="524.6" y="269.9" width="73.2" height="24.65" shape-rendering="crispEdges"/><rect fill="#000000" x="597.8" y="269.9" width="573.4" height="24.65" shape-rendering="crispEdges"/><rect fill="#000000" x="1171.2" y="269.9" width="12.2" height="24.65" shape-rendering="crispEdges"/><rect fill="#000000" x="1183.4" y="269.9" width="12.2" height="24.65" shape-rendering="crispEdges"/><rect fill="#000000" x="1195.6" y="269.9" width="24.4" height="24.65" shape-rendering="crispEdges"/><rect fill="#000000" x="0" y="294.3" width="24.4" height="24.65" shape-rendering="crispEdges"/><rect fill="#000000" x="24.4" y="294.3" width="12.2" height="24.65" shape-rendering="crispEdges"/><rect fill="#000000" x="36.6" y="294.3" width="12.2" height="24.65" shape-rendering="crispEdges"/><rect fill="#000000" x="48.8" y="294.3" width="573.4" height="24.65" shape-rendering="crispEdges"/><rect fill="#000000" x="622.2" y="294.3" width="549" height="24.65" shape-rendering="crispEdges"/><rect fill="#000000" x="1171.2" y="294.3" width="12.2" height="24.65" shape-rendering="crispEdges"/><rect fill="#000000" x="1183.4" y="294.3" width="12.2" height="24.65" shape-rendering="crispEdges"/><rect fill="#000000" x="1195.6" y="294.3" width="24.4" height="24.65" shape-rendering="crispEdges"/><rect fill="#000000" x="0" y="318.7" width="24.4" height="24.65" shape-rendering="crispEdges"/><rect fill="#000000" x="24.4" y="318.7" width="12.2" height="24.65" shape-rendering="crispEdges"/><rect fill="#000000" x="36.6" y="318.7" width="12.2" height="24.65" shape-rendering="crispEdges"/><rect fill="#000000" x="48.8" y="318.7" width="36.6" height="24.65" shape-rendering="crispEdges"/><rect fill="#000000" x="85.4" y="318.7" width="170.8" height="24.65" shape-rendering="crispEdges"/><rect fill="#000000" x="256.2" y="318.7" width="36.6" height="24.65" shape-rendering="crispEdges"/><rect fill="#000000" x="292.8" y="318.7" width="183" height="24.65" shape-rendering="crispEdges"/><rect fill="#000000" x="475.8" y="318.7" width="61" height="24.65" shape-rendering="crispEdges"/><rect fill="#000000" x="536.8" y="318.7" width="122" height="24.65" shape-rendering="crispEdges"/><rect fill="#000000" x="658.8" y="318.7" width="512.4" height="24.65" shape-rendering="crispEdges"/><rect fill="#000000" x="1171.2" y="318.7" width="12.2" height="24.65" shape-rendering="crispEdges"/><rect fill="#000000" x="1183.4" y="318.7" width="12.2" height="24.65" shape-rendering="crispEdges"/><rect fill="#000000" x="1195.6" y="318.7" width="24.4" height="24.65" shape-rendering="crispEdges"/><rect fill="#000000" x="0" y="343.1" width="24.4" height="24.65" shape-rendering="crispEdges"/><rect fill="#000000" x="24.4" y="343.1" width="12.2" height="24.65" shape-rendering="crispEdges"/><rect fill="#000000" x="36.6" y="343.1" width="1146.8" height="24.65" shape-rendering="crispEdges"/><rect fill="#000000" x="1183.4" y="343.1" width="12.2" height="24.65" shape-rendering="crispEdges"/><rect fill="#000000" x="1195.6" y="343.1" width="24.4" height="24.65" shape-rendering="crispEdges"/><rect fill="#000000" x="0" y="367.5" width="24.4" height="24.65" shape-rendering="crispEdges"/><rect fill="#000000" x="24.4" y="367.5" width="1171.2" height="24.65" shape-rendering="crispEdges"/><rect fill="#000000" x="1195.6" y="367.5" width="24.4" height="24.65" shape-rendering="crispEdges"/><rect fill="#000000" x="0" y="391.9" width="24.4" height="24.65" shape-rendering="crispEdges"/><rect fill="#000000" x="24.4" y="391.9" width="768.6" height="24.65" shape-rendering="crispEdges"/><rect fill="#000000" x="793" y="391.9" width="402.6" height="24.65" shape-rendering="crispEdges"/><rect fill="#000000" x="1195.6" y="391.9" width="24.4" height="24.65" shape-rendering="crispEdges"/><rect fill="#000000" x="0" y="416.3" width="24.4" height="24.65" shape-rendering="crispEdges"/><rect fill="#000000" x="24.4" y="416.3" width="97.6" height="24.65" shape-rendering="crispEdges"/><rect fill="#000000" x="122" y="416.3" width="73.2" height="24.65" shape-rendering="crispEdges"/><rect fill="#000000" x="195.2" y="416.3" width="85.4" height="24.65" shape-rendering="crispEdges"/><rect fill="#000000" x="280.6" y="416.3" width="12.2" height="24.65" shape-rendering="crispEdges"/><rect fill="#000000" x="292.8" y="416.3" width="256.2" height="24.65" shape-rendering="crispEdges"/><rect fill="#000000" x="549" y="416.3" width="36.6" height="24.65" shape-rendering="crispEdges"/><rect fill="#000000" x="585.6" y="416.3" width="134.2" height="24.65" shape-rendering="crispEdges"/><rect fill="#000000" x="719.8" y="416.3" width="475.8" height="24.65" shape-rendering="crispEdges"/><rect fill="#000000" x="1195.6" y="416.3" width="24.4" height="24.65" shape-rendering="crispEdges"/><rect fill="#000000" x="0" y="440.7" width="1220" height="24.65" shape-rendering="crispEdges"/><rect fill="#000000" x="0" y="465.1" width="1220" height="24.65" shape-rendering="crispEdges"/><rect fill="#000000" x="0" y="489.5" width="1220" height="24.65" shape-rendering="crispEdges"/><rect fill="#000000" x="0" y="513.9" width="1220" height="24.65" shape-rendering="crispEdges"/><rect fill="#000000" x="0" y="538.3" width="1220" height="24.65" shape-rendering="crispEdges"/><rect fill="#000000" x="0" y="562.7" width="1220" height="24.65" shape-rendering="crispEdges"/><rect fill="#000000" x="0" y="587.1" width="1220" height="24.65" shape-rendering="crispEdges"/><rect fill="#000000" x="0" y="611.5" width="1220" height="24.65" shape-rendering="crispEdges"/><rect fill="#000000" x="0" y="635.9" width="1220" height="24.65" shape-rendering="crispEdges"/><rect fill="#000000" x="0" y="660.3" width="1220" height="24.65" shape-rendering="crispEdges"/><rect fill="#000000" x="0" y="684.7" width="1220" height="24.65" shape-rendering="crispEdges"/><rect fill="#000000" x="0" y="709.1" width="1220" height="24.65" shape-rendering="crispEdges"/><rect fill="#000000" x="0" y="733.5" width="1220" height="24.65" shape-rendering="crispEdges"/><rect fill="#000000" x="0" y="757.9" width="1220" height="24.65" shape-rendering="crispEdges"/><rect fill="#000000" x="0" y="782.3" width="1220" height="24.65" shape-rendering="crispEdges"/><rect fill="#000000" x="0" y="806.7" width="1220" height="24.65" shape-rendering="crispEdges"/>
    <g class="terminal-2273357775-matrix">
    <text class="terminal-2273357775-r1" x="1220" y="20" textLength="12.2" clip-path="url(#terminal-2273357775-line-0)">
</text><text class="terminal-2273357775-r2" x="24.4" y="44.4" textLength="488" clip-path="url(#terminal-2273357775-line-1)">TRADEPORT&#160;·&#160;Sol&#160;Exchange&#160;·&#160;Class&#160;4&#160;(BBS)</text><text class="terminal-2273357775-r4" x="585.6" y="44.4" textLength="97.6" clip-path="url(#terminal-2273357775-line-1)">Sector&#160;3</text><text class="terminal-2273357775-r1" x="1220" y="44.4" textLength="12.2" clip-path="url(#terminal-2273357775-line-1)">
</text><text class="terminal-2273357775-r1" x="1220" y="68.8" textLength="12.2" clip-path="url(#terminal-2273357775-line-2)">
</text><text class="terminal-2273357775-r3" x="24.4" y="93.2" textLength="134.2" clip-path="url(#terminal-2273357775-line-3)">&#160;Commodity&#160;</text><text class="terminal-2273357775-r3" x="158.6" y="93.2" textLength="73.2" clip-path="url(#terminal-2273357775-line-3)">&#160;They&#160;</text><text class="terminal-2273357775-r3" x="231.8" y="93.2" textLength="183" clip-path="url(#terminal-2273357775-line-3)">&#160;Stock&#160;&#160;&#160;&#160;&#160;&#160;&#160;&#160;&#160;</text><text class="terminal-2273357775-r3" x="414.8" y="93.2" textLength="109.8" clip-path="url(#terminal-2273357775-line-3)">&#160;Price/u&#160;</text><text class="terminal-2273357775-r3" x="524.6" y="93.2" textLength="61" clip-path="url(#terminal-2273357775-line-3)">&#160;You&#160;</text><text class="terminal-2273357775-r3" x="585.6" y="93.2" textLength="97.6" clip-path="url(#terminal-2273357775-line-3)">&#160;Action&#160;</text><text class="terminal-2273357775-r1" x="1220" y="93.2" textLength="12.2" clip-path="url(#terminal-2273357775-line-3)">
</text><text class="terminal-2273357775-r5" x="24.4" y="117.6" textLength="134.2" clip-path="url(#terminal-2273357775-line-4)">&#160;Fuel&#160;Ore&#160;&#160;</text><text class="terminal-2273357775-r5" x="158.6" y="117.6" textLength="73.2" clip-path="url(#terminal-2273357775-line-4)">&#160;BUY&#160;&#160;</text><text class="terminal-2273357775-r5" x="231.8" y="117.6" textLength="183" clip-path="url(#terminal-2273357775-line-4)">&#160;████░░░░░&#160;41%&#160;</text><text class="terminal-2273357775-r5" x="414.8" y="117.6" textLength="109.8" clip-path="url(#terminal-2273357775-line-4)">&#160;13&#160;^&#160;&#160;&#160;&#160;</text><text class="terminal-2273357775-r5" x="524.6" y="117.6" textLength="61" clip-path="url(#terminal-2273357775-line-4)">&#160;20&#160;&#160;</text><text class="terminal-2273357775-r5" x="585.6" y="117.6" textLength="97.6" clip-path="url(#terminal-2273357775-line-4)">&#160;Sell&#160;&#160;&#160;</text><text class="terminal-2273357775-r1" x="1220" y="117.6" textLength="12.2" clip-path="url(#terminal-2273357775-line-4)">
</text><text class="terminal-2273357775-r6" x="24.4" y="142" textLength="134.2" clip-path="url(#terminal-2273357775-line-5)">&#160;Organics&#160;&#160;</text><text class="terminal-2273357775-r6" x="158.6" y="142" textLength="73.2" clip-path="url(#terminal-2273357775-line-5)">&#160;SELL&#160;</text><text class="terminal-2273357775-r6" x="231.8" y="142" textLength="183" clip-path="url(#terminal-2273357775-line-5)">&#160;██░░░░░░░&#160;22%&#160;</text><text class="terminal-2273357775-r6" x="414.8" y="142" textLength="109.8" clip-path="url(#terminal-2273357775-line-5)">&#160;6&#160;^&#160;&#160;&#160;&#160;&#160;</text><text class="terminal-2273357775-r6" x="524.6" y="142" textLength="61" clip-path="url(#terminal-2273357775-line-5)">&#160;12&#160;&#160;</text><text class="terminal-2273357775-r3" x="597.8" y="142" textLength="36.6" clip-path="url(#terminal-2273357775-line-5)">Buy</text><text class="terminal-2273357775-r1" x="1220" y="142" textLength="12.2" clip-path="url(#terminal-2273357775-line-5)">
</text><text class="terminal-2273357775-r6" x="24.4" y="166.4" textLength="134.2" clip-path="url(#terminal-2273357775-line-6)">&#160;Equipment&#160;</text><text class="terminal-2273357775-r6" x="158.6" y="166.4" textLength="73.2" clip-path="url(#terminal-2273357775-line-6)">&#160;BUY&#160;&#160;</text><text class="terminal-2273357775-r6" x="231.8" y="166.4" textLength="183" clip-path="url(#terminal-2273357775-line-6)">&#160;█████░░░░&#160;58%&#160;</text><text class="terminal-2273357775-r6" x="414.8" y="166.4" textLength="109.8" clip-path="url(#terminal-2273357775-line-6)">&#160;14&#160;v&#160;&#160;&#160;&#160;</text><text class="terminal-2273357775-r6" x="524.6" y="166.4" textLength="61" clip-path="url(#terminal-2273357775-line-6)">&#160;8&#160;&#160;&#160;</text><text class="terminal-2273357775-r3" x="597.8" y="166.4" textLength="48.8" clip-path="url(#terminal-2273357775-line-6)">Sell</text><text class="terminal-2273357775-r1" x="1220" y="166.4" textLength="12.2" clip-path="url(#terminal-2273357775-line-6)">
</text><text class="terminal-2273357775-r1" x="1220" y="190.8" textLength="12.2" clip-path="url(#terminal-2273357775-line-7)">
</text><text class="terminal-2273357775-r7" x="24.4" y="215.2" textLength="12.2" clip-path="url(#terminal-2273357775-line-8)">╭</text><text class="terminal-2273357775-r7" x="36.6" y="215.2" textLength="1146.8" clip-path="url(#terminal-2273357775-line-8)">──────────────────────────────────────────────────────────────────────────────────────────────</text><text class="terminal-2273357775-r7" x="1183.4" y="215.2" textLength="12.2" clip-path="url(#terminal-2273357775-line-8)">╮</text><text class="terminal-2273357775-r1" x="1220" y="215.2" textLength="12.2" clip-path="url(#terminal-2273357775-line-8)">
</text><text class="terminal-2273357775-r7" x="24.4" y="239.6" textLength="12.2" clip-path="url(#terminal-2273357775-line-9)">│</text><text class="terminal-2273357775-r3" x="48.8" y="239.6" textLength="256.2" clip-path="url(#terminal-2273357775-line-9)">Haggle:&#160;Sell&#160;Fuel&#160;Ore</text><text class="terminal-2273357775-r7" x="1183.4" y="239.6" textLength="12.2" clip-path="url(#terminal-2273357775-line-9)">│</text><text class="terminal-2273357775-r1" x="1220" y="239.6" textLength="12.2" clip-path="url(#terminal-2273357775-line-9)">
</text><text class="terminal-2273357775-r7" x="24.4" y="264" textLength="12.2" clip-path="url(#terminal-2273357775-line-10)">│</text><text class="terminal-2273357775-r6" x="48.8" y="264" textLength="366" clip-path="url(#terminal-2273357775-line-10)">Quote:&#160;&#160;13/u&#160;&#160;x&#160;&#160;20&#160;units&#160;&#160;=&#160;&#160;</text><text class="terminal-2273357775-r8" x="414.8" y="264" textLength="109.8" clip-path="url(#terminal-2273357775-line-10)">260&#160;slips</text><text class="terminal-2273357775-r7" x="1183.4" y="264" textLength="12.2" clip-path="url(#terminal-2273357775-line-10)">│</text><text class="terminal-2273357775-r1" x="1220" y="264" textLength="12.2" clip-path="url(#terminal-2273357775-line-10)">
</text><text class="terminal-2273357775-r7" x="24.4" y="288.4" textLength="12.2" clip-path="url(#terminal-2273357775-line-11)">│</text><text class="terminal-2273357775-r6" x="48.8" y="288.4" textLength="195.2" clip-path="url(#terminal-2273357775-line-11)">Your&#160;counter:&#160;(&#160;</text><text class="terminal-2273357775-r3" x="244" y="288.4" textLength="24.4" clip-path="url(#terminal-2273357775-line-11)">15</text><text class="terminal-2273357775-r6" x="268.4" y="288.4" textLength="256.2" clip-path="url(#terminal-2273357775-line-11)">&#160;)/u&#160;&#160;&#160;&#160;fair&#160;~&#160;13&#160;&#160;&#160;&#160;</text><text class="terminal-2273357775-r9" x="524.6" y="288.4" textLength="73.2" clip-path="url(#terminal-2273357775-line-11)">likely</text><text class="terminal-2273357775-r7" x="1183.4" y="288.4" textLength="12.2" clip-path="url(#terminal-2273357775-line-11)">│</text><text class="terminal-2273357775-r1" x="1220" y="288.4" textLength="12.2" clip-path="url(#terminal-2273357775-line-11)">
</text><text class="terminal-2273357775-r7" x="24.4" y="312.8" textLength="12.2" clip-path="url(#terminal-2273357775-line-12)">│</text><text class="terminal-2273357775-r6" x="48.8" y="312.8" textLength="573.4" clip-path="url(#terminal-2273357775-line-12)">Round&#160;1&#160;of&#160;2&#160;&#160;&#160;·&#160;&quot;Hah,&#160;14&#160;and&#160;not&#160;a&#160;slip&#160;more.&quot;</text><text class="terminal-2273357775-r7" x="1183.4" y="312.8" textLength="12.2" clip-path="url(#terminal-2273357775-line-12)">│</text><text class="terminal-2273357775-r1" x="1220" y="312.8" textLength="12.2" clip-path="url(#terminal-2273357775-line-12)">
</text><text class="terminal-2273357775-r7" x="24.4" y="337.2" textLength="12.2" clip-path="url(#terminal-2273357775-line-13)">│</text><text class="terminal-2273357775-r3" x="48.8" y="337.2" textLength="36.6" clip-path="url(#terminal-2273357775-line-13)">[A]</text><text class="terminal-2273357775-r6" x="85.4" y="337.2" textLength="170.8" clip-path="url(#terminal-2273357775-line-13)">ccept&#160;quote&#160;&#160;&#160;</text><text class="terminal-2273357775-r3" x="256.2" y="337.2" textLength="36.6" clip-path="url(#terminal-2273357775-line-13)">[O]</text><text class="terminal-2273357775-r6" x="292.8" y="337.2" textLength="183" clip-path="url(#terminal-2273357775-line-13)">ffer&#160;counter&#160;&#160;&#160;</text><text class="terminal-2273357775-r3" x="475.8" y="337.2" textLength="61" clip-path="url(#terminal-2273357775-line-13)">[Esc]</text><text class="terminal-2273357775-r6" x="536.8" y="337.2" textLength="122" clip-path="url(#terminal-2273357775-line-13)">&#160;walk&#160;away</text><text class="terminal-2273357775-r7" x="1183.4" y="337.2" textLength="12.2" clip-path="url(#terminal-2273357775-line-13)">│</text><text class="terminal-2273357775-r1" x="1220" y="337.2" textLength="12.2" clip-path="url(#terminal-2273357775-line-13)">
</text><text class="terminal-2273357775-r7" x="24.4" y="361.6" textLength="12.2" clip-path="url(#terminal-2273357775-line-14)">╰</text><text class="terminal-2273357775-r7" x="36.6" y="361.6" textLength="1146.8" clip-path="url(#terminal-2273357775-line-14)">──────────────────────────────────────────────────────────────────────────────────────────────</text><text class="terminal-2273357775-r7" x="1183.4" y="361.6" textLength="12.2" clip-path="url(#terminal-2273357775-line-14)">╯</text><text class="terminal-2273357775-r1" x="1220" y="361.6" textLength="12.2" clip-path="url(#terminal-2273357775-line-14)">
</text><text class="terminal-2273357775-r1" x="1220" y="386" textLength="12.2" clip-path="url(#terminal-2273357775-line-15)">
</text><text class="terminal-2273357775-r10" x="24.4" y="410.4" textLength="768.6" clip-path="url(#terminal-2273357775-line-16)">^&#160;port&#160;buys&#160;from&#160;you&#160;(you&#160;SELL)&#160;&#160;&#160;v&#160;port&#160;sells&#160;to&#160;you&#160;(you&#160;BUY)</text><text class="terminal-2273357775-r1" x="1220" y="410.4" textLength="12.2" clip-path="url(#terminal-2273357775-line-16)">
</text><text class="terminal-2273357775-r11" x="24.4" y="434.8" textLength="97.6" clip-path="url(#terminal-2273357775-line-17)">Latinum&#160;</text><text class="terminal-2273357775-r8" x="122" y="434.8" textLength="73.2" clip-path="url(#terminal-2273357775-line-17)">14,250</text><text class="terminal-2273357775-r11" x="195.2" y="434.8" textLength="85.4" clip-path="url(#terminal-2273357775-line-17)">&#160;&#160;&#160;·&#160;&#160;&#160;</text><text class="terminal-2273357775-r12" x="280.6" y="434.8" textLength="12.2" clip-path="url(#terminal-2273357775-line-17)">Q</text><text class="terminal-2273357775-r11" x="292.8" y="434.8" textLength="256.2" clip-path="url(#terminal-2273357775-line-17)">uick-trade&#160;off&#160;&#160;&#160;·&#160;&#160;&#160;</text><text class="terminal-2273357775-r12" x="549" y="434.8" textLength="36.6" clip-path="url(#terminal-2273357775-line-17)">Esc</text><text class="terminal-2273357775-r11" x="585.6" y="434.8" textLength="134.2" clip-path="url(#terminal-2273357775-line-17)">&#160;leave&#160;dock</text><text class="terminal-2273357775-r1" x="1220" y="434.8" textLength="12.2" clip-path="url(#terminal-2273357775-line-17)">
</text><text class="terminal-2273357775-r1" x="1220" y="459.2" textLength="12.2" clip-path="url(#terminal-2273357775-line-18)">
</text><text class="terminal-2273357775-r1" x="1220" y="483.6" textLength="12.2" clip-path="url(#terminal-2273357775-line-19)">
</text><text class="terminal-2273357775-r1" x="1220" y="508" textLength="12.2" clip-path="url(#terminal-2273357775-line-20)">
</text><text class="terminal-2273357775-r1" x="1220" y="532.4" textLength="12.2" clip-path="url(#terminal-2273357775-line-21)">
</text><text class="terminal-2273357775-r1" x="1220" y="556.8" textLength="12.2" clip-path="url(#terminal-2273357775-line-22)">
</text><text class="terminal-2273357775-r1" x="1220" y="581.2" textLength="12.2" clip-path="url(#terminal-2273357775-line-23)">
</text><text class="terminal-2273357775-r1" x="1220" y="605.6" textLength="12.2" clip-path="url(#terminal-2273357775-line-24)">
</text><text class="terminal-2273357775-r1" x="1220" y="630" textLength="12.2" clip-path="url(#terminal-2273357775-line-25)">
</text><text class="terminal-2273357775-r1" x="1220" y="654.4" textLength="12.2" clip-path="url(#terminal-2273357775-line-26)">
</text><text class="terminal-2273357775-r1" x="1220" y="678.8" textLength="12.2" clip-path="url(#terminal-2273357775-line-27)">
</text><text class="terminal-2273357775-r1" x="1220" y="703.2" textLength="12.2" clip-path="url(#terminal-2273357775-line-28)">
</text><text class="terminal-2273357775-r1" x="1220" y="727.6" textLength="12.2" clip-path="url(#terminal-2273357775-line-29)">
</text><text class="terminal-2273357775-r1" x="1220" y="752" textLength="12.2" clip-path="url(#terminal-2273357775-line-30)">
</text><text class="terminal-2273357775-r1" x="1220" y="776.4" textLength="12.2" clip-path="url(#terminal-2273357775-line-31)">
</text><text class="terminal-2273357775-r1" x="1220" y="800.8" textLength="12.2" clip-path="url(#terminal-2273357775-line-32)">
</text>
    </g>
    </g>
</svg>
