<svg class="rich-terminal" viewBox="0 0 1482 1026.0" xmlns="http://www.w3.org/2000/svg">
    <!-- Generated with Rich https://www.textualize.io -->
    <style>

    @font-face {
        font-family: "Fira Code";
        src: local("FiraCode-Regular"),
                url("https://cdnjs.cloudflare.com/ajax/libs/firacode/6.2.0/woff2/FiraCode-Regular.woff2") format("woff2"),
                url("https://cdnjs.cloudflare.com/ajax/libs/firacode/6.2.0/woff/FiraCode-Regular.woff") format("woff");
        font-style: normal;
        font-weight: 400;
    }
    @font-face {
        font-family: "Fira Code";
        src: local("FiraCode-Bold"),
                url("https://cdnjs.cloudflare.com/ajax/libs/firacode/6.2.0/woff2/FiraCode-Bold.woff2") format("woff2"),
                url("https://cdnjs.cloudflare.com/ajax/libs/firacode/6.2.0/woff/FiraCode-Bold.woff") format("woff");
        font-style: bold;
        font-weight: 700;
    }

    .terminal-matrix {
        font-family: Fira Code, monospace;
        font-size: 20px;
        line-height: 24.4px;
        font-variant-east-asian: full-width;
    }

    .terminal-title {
        font-size: 18px;
        font-weight: bold;
        font-family: arial;
    }

    .terminal-r1 { fill: #c5c8c6 }
.terminal-r2 { fill: #000000;font-weight: bold }
.terminal-r3 { fill: #737373 }
.terminal-r4 { fill: #e6e6e6 }
.terminal-r5 { fill: #171717 }
.terminal-r6 { fill: #35d7d7 }
.terminal-r7 { fill: #e6e6e6;font-weight: bold }
.terminal-r8 { fill: #979797 }
.terminal-r9 { fill: #606060 }
.terminal-r10 { fill: #999999 }
.terminal-r11 { fill: #646464;font-weight: bold }
.terminal-r12 { fill: #646464 }
.terminal-r13 { fill: #35d7d7;font-weight: bold }
.terminal-r14 { fill: #40484d }
    </style>

    <defs>
    <clipPath id="terminal-clip-terminal">
      <rect x="0" y="0" width="1463.0" height="975.0" />
    </clipPath>
    <clipPath id="terminal-line-0">
    <rect x="0" y="1.5" width="1464" height="24.65"/>
            </clipPath>
<clipPath id="terminal-line-1">
    <rect x="0" y="25.9" width="1464" height="24.65"/>
            </clipPath>
<clipPath id="terminal-line-2">
    <rect x="0" y="50.3" width="1464" height="24.65"/>
            </clipPath>
<clipPath id="terminal-line-3">
    <rect x="0" y="74.7" width="1464" height="24.65"/>
            </clipPath>
<clipPath id="terminal-line-4">
    <rect x="0" y="99.1" width="1464" height="24.65"/>
            </clipPath>
<clipPath id="terminal-line-5">
    <rect x="0" y="123.5" width="1464" height="24.65"/>
            </clipPath>
<clipPath id="terminal-line-6">
    <rect x="0" y="147.9" width="1464" height="24.65"/>
            </clipPath>
<clipPath id="terminal-line-7">
    <rect x="0" y="172.3" width="1464" height="24.65"/>
            </clipPath>
<clipPath id="terminal-line-8">
    <rect x="0" y="196.7" width="1464" height="24.65"/>
            </clipPath>
<clipPath id="terminal-line-9">
    <rect x="0" y="221.1" width="1464" height="24.65"/>
            </clipPath>
<clipPath id="terminal-line-10">
    <rect x="0" y="245.5" width="1464" height="24.65"/>
            </clipPath>
<clipPath id="terminal-line-11">
    <rect x="0" y="269.9" width="1464" height="24.65"/>
            </clipPath>
<clipPath id="terminal-line-12">
    <rect x="0" y="294.3" width="1464" height="24.65"/>
            </clipPath>
<clipPath id="terminal-line-13">
    <rect x="0" y="318.7" width="1464" height="24.65"/>
            </clipPath>
<clipPath id="terminal-line-14">
    <rect x="0" y="343.1" width="1464" height="24.65"/>
            </clipPath>
<clipPath id="terminal-line-15">
    <rect x="0" y="367.5" width="1464" height="24.65"/>
            </clipPath>
<clipPath id="terminal-line-16">
    <rect x="0" y="391.9" width="1464" height="24.65"/>
            </clipPath>
<clipPath id="terminal-line-17">
    <rect x="0" y="416.3" width="1464" height="24.65"/>
            </clipPath>
<clipPath id="terminal-line-18">
    <rect x="0" y="440.7" width="1464" height="24.65"/>
            </clipPath>
<clipPath id="terminal-line-19">
    <rect x="0" y="465.1" width="1464" height="24.65"/>
            </clipPath>
<clipPath id="terminal-line-20">
    <rect x="0" y="489.5" width="1464" height="24.65"/>
            </clipPath>
<clipPath id="terminal-line-21">
    <rect x="0" y="513.9" width="1464" height="24.65"/>
            </clipPath>
<clipPath id="terminal-line-22">
    <rect x="0" y="538.3" width="1464" height="24.65"/>
            </clipPath>
<clipPath id="terminal-line-23">
    <rect x="0" y="562.7" width="1464" height="24.65"/>
            </clipPath>
<clipPath id="terminal-line-24">
    <rect x="0" y="587.1" width="1464" height="24.65"/>
            </clipPath>
<clipPath id="terminal-line-25">
    <rect x="0" y="611.5" width="1464" height="24.65"/>
            </clipPath>
<clipPath id="terminal-line-26">
    <rect x="0" y="635.9" width="1464" height="24.65"/>
            </clipPath>
<clipPath id="terminal-line-27">
    <rect x="0" y="660.3" width="1464" height="24.65"/>
            </clipPath>
<clipPath id="terminal-line-28">
    <rect x="0" y="684.7" width="1464" height="24.65"/>
            </clipPath>
<clipPath id="terminal-line-29">
    <rect x="0" y="709.1" width="1464" height="24.65"/>
            </clipPath>
<clipPath id="terminal-line-30">
    <rect x="0" y="733.5" width="1464" height="24.65"/>
            </clipPath>
<clipPath id="terminal-line-31">
    <rect x="0" y="757.9" width="1464" height="24.65"/>
            </clipPath>
<clipPath id="terminal-line-32">
    <rect x="0" y="782.3" width="1464" height="24.65"/>
            </clipPath>
<clipPath id="terminal-line-33">
    <rect x="0" y="806.7" width="1464" height="24.65"/>
            </clipPath>
<clipPath id="terminal-line-34">
    <rect x="0" y="831.1" width="1464" height="24.65"/>
            </clipPath>
<clipPath id="terminal-line-35">
    <rect x="0" y="855.5" width="1464" height="24.65"/>
            </clipPath>
<clipPath id="terminal-line-36">
    <rect x="0" y="879.9" width="1464" height="24.65"/>
            </clipPath>
<clipPath id="terminal-line-37">
    <rect x="0" y="904.3" width="1464" height="24.65"/>
            </clipPath>
<clipPath id="terminal-line-38">
    <rect x="0" y="928.7" width="1464" height="24.65"/>
            </clipPath>
    </defs>

    <rect fill="#292929" stroke="rgba(255,255,255,0.35)" stroke-width="1" x="1" y="1" width="1480" height="1024" rx="8"/><text class="terminal-title" fill="#c5c8c6" text-anchor="middle" x="740" y="27">Edge&#160;of&#160;the&#160;Unknown</text>
            <g transform="translate(26,22)">
            <circle cx="0" cy="0" r="7" fill="#ff5f57"/>
            <circle cx="22" cy="0" r="7" fill="#febc2e"/>
            <circle cx="44" cy="0" r="7" fill="#28c840"/>
            </g>
        
    <g transform="translate(9, 41)" clip-path="url(#terminal-clip-terminal)">
    <rect fill="#35d7d7" x="0" y="1.5" width="12.2" height="24.65" shape-rendering="crispEdges"/><rect fill="#35d7d7" x="12.2" y="1.5" width="158.6" height="24.65" shape-rendering="crispEdges"/><rect fill="#35d7d7" x="170.8" y="1.5" width="1293.2" height="24.65" shape-rendering="crispEdges"/><rect fill="#000000" x="0" y="25.9" width="12.2" height="24.65" shape-rendering="crispEdges"/><rect fill="#000000" x="12.2" y="25.9" width="122" height="24.65" shape-rendering="crispEdges"/><rect fill="#000000" x="134.2" y="25.9" width="24.4" height="24.65" shape-rendering="crispEdges"/><rect fill="#000000" x="158.6" y="25.9" width="97.6" height="24.65" shape-rendering="crispEdges"/><rect fill="#000000" x="256.2" y="25.9" width="24.4" height="24.65" shape-rendering="crispEdges"/><rect fill="#000000" x="280.6" y="25.9" width="134.2" height="24.65" shape-rendering="crispEdges"/><rect fill="#000000" x="414.8" y="25.9" width="24.4" height="24.65" shape-rendering="crispEdges"/><rect fill="#000000" x="439.2" y="25.9" width="109.8" height="24.65" shape-rendering="crispEdges"/><rect fill="#000000" x="549" y="25.9" width="24.4" height="24.65" shape-rendering="crispEdges"/><rect fill="#000000" x="573.4" y="25.9" width="85.4" height="24.65" shape-rendering="crispEdges"/><rect fill="#000000" x="658.8" y="25.9" width="805.2" height="24.65" shape-rendering="crispEdges"/><rect fill="#000000" x="0" y="50.3" width="158.6" height="24.65" shape-rendering="crispEdges"/><rect fill="#000000" x="158.6" y="50.3" width="97.6" height="24.65" shape-rendering="crispEdges"/><rect fill="#000000" x="256.2" y="50.3" width="1207.8" height="24.65" shape-rendering="crispEdges"/><rect fill="#000000" x="0" y="74.7" width="12.2" height="24.65" shape-rendering="crispEdges"/><rect fill="#000000" x="12.2" y="74.7" width="61" height="24.65" shape-rendering="crispEdges"/><rect fill="#000000" x="73.2" y="74.7" width="24.4" height="24.65" shape-rendering="crispEdges"/><rect fill="#000000" x="97.6" y="74.7" width="61" height="24.65" shape-rendering="crispEdges"/><rect fill="#000000" x="158.6" y="74.7" width="24.4" height="24.65" shape-rendering="crispEdges"/><rect fill="#000000" x="183" y="74.7" width="73.2" height="24.65" shape-rendering="crispEdges"/><rect fill="#000000" x="256.2" y="74.7" width="1207.8" height="24.65" shape-rendering="crispEdges"/><rect fill="#000000" x="0" y="99.1" width="12.2" height="24.65" shape-rendering="crispEdges"/><rect fill="#000000" x="12.2" y="99.1" width="61" height="24.65" shape-rendering="crispEdges"/><rect fill="#000000" x="73.2" y="99.1" width="1390.8" height="24.65" shape-rendering="crispEdges"/><rect fill="#000000" x="0" y="123.5" width="1464" height="24.65" shape-rendering="crispEdges"/><rect fill="#000000" x="0" y="147.9" width="24.4" height="24.65" shape-rendering="crispEdges"/><rect fill="#000000" x="24.4" y="147.9" width="183" height="24.65" shape-rendering="crispEdges"/><rect fill="#000000" x="207.4" y="147.9" width="97.6" height="24.65" shape-rendering="crispEdges"/><rect fill="#000000" x="305" y="147.9" width="341.6" height="24.65" shape-rendering="crispEdges"/><rect fill="#000000" x="646.6" y="147.9" width="817.4" height="24.65" shape-rendering="crispEdges"/><rect fill="#000000" x="0" y="172.3" width="1464" height="24.65" shape-rendering="crispEdges"/><rect fill="#000000" x="0" y="196.7" width="36.6" height="24.65" shape-rendering="crispEdges"/><rect fill="#000000" x="36.6" y="196.7" width="109.8" height="24.65" shape-rendering="crispEdges"/><rect fill="#000000" x="146.4" y="196.7" width="1281" height="24.65" shape-rendering="crispEdges"/><rect fill="#000000" x="1427.4" y="196.7" width="36.6" height="24.65" shape-rendering="crispEdges"/><rect fill="#000000" x="0" y="221.1" width="1464" height="24.65" shape-rendering="crispEdges"/><rect fill="#000000" x="0" y="245.5" width="24.4" height="24.65" shape-rendering="crispEdges"/><rect fill="#172127" x="24.4" y="245.5" width="122" height="24.65" shape-rendering="crispEdges"/><rect fill="#172127" x="146.4" y="245.5" width="195.2" height="24.65" shape-rendering="crispEdges"/><rect fill="#172127" x="341.6" y="245.5" width="122" height="24.65" shape-rendering="crispEdges"/><rect fill="#172127" x="463.6" y="245.5" width="73.2" height="24.65" shape-rendering="crispEdges"/><rect fill="#172127" x="536.8" y="245.5" width="195.2" height="24.65" shape-rendering="crispEdges"/><rect fill="#172127" x="732" y="245.5" width="97.6" height="24.65" shape-rendering="crispEdges"/><rect fill="#172127" x="829.6" y="245.5" width="610" height="24.65" shape-rendering="crispEdges"/><rect fill="#000000" x="1439.6" y="245.5" width="24.4" height="24.65" shape-rendering="crispEdges"/><rect fill="#000000" x="0" y="269.9" width="24.4" height="24.65" shape-rendering="crispEdges"/><rect fill="#1b5053" x="24.4" y="269.9" width="122" height="24.65" shape-rendering="crispEdges"/><rect fill="#1b5053" x="146.4" y="269.9" width="195.2" height="24.65" shape-rendering="crispEdges"/><rect fill="#1b5053" x="341.6" y="269.9" width="122" height="24.65" shape-rendering="crispEdges"/><rect fill="#1b5053" x="463.6" y="269.9" width="73.2" height="24.65" shape-rendering="crispEdges"/><rect fill="#1b5053" x="536.8" y="269.9" width="195.2" height="24.65" shape-rendering="crispEdges"/><rect fill="#1b5053" x="732" y="269.9" width="97.6" height="24.65" shape-rendering="crispEdges"/><rect fill="#1b5053" x="829.6" y="269.9" width="610" height="24.65" shape-rendering="crispEdges"/><rect fill="#000000" x="1439.6" y="269.9" width="24.4" height="24.65" shape-rendering="crispEdges"/><rect fill="#000000" x="0" y="294.3" width="1464" height="24.65" shape-rendering="crispEdges"/><rect fill="#000000" x="0" y="318.7" width="24.4" height="24.65" shape-rendering="crispEdges"/><rect fill="#000000" x="24.4" y="318.7" width="12.2" height="24.65" shape-rendering="crispEdges"/><rect fill="#000000" x="36.6" y="318.7" width="219.6" height="24.65" shape-rendering="crispEdges"/><rect fill="#000000" x="256.2" y="318.7" width="12.2" height="24.65" shape-rendering="crispEdges"/><rect fill="#000000" x="268.4" y="318.7" width="390.4" height="24.65" shape-rendering="crispEdges"/><rect fill="#000000" x="658.8" y="318.7" width="805.2" height="24.65" shape-rendering="crispEdges"/><rect fill="#000000" x="0" y="343.1" width="1464" height="24.65" shape-rendering="crispEdges"/><rect fill="#000000" x="0" y="367.5" width="1464" height="24.65" shape-rendering="crispEdges"/><rect fill="#000000" x="0" y="391.9" width="1464" height="24.65" shape-rendering="crispEdges"/><rect fill="#000000" x="0" y="416.3" width="1464" height="24.65" shape-rendering="crispEdges"/><rect fill="#000000" x="0" y="440.7" width="1464" height="24.65" shape-rendering="crispEdges"/><rect fill="#000000" x="0" y="465.1" width="1464" height="24.65" shape-rendering="crispEdges"/><rect fill="#000000" x="0" y="489.5" width="1464" height="24.65" shape-rendering="crispEdges"/><rect fill="#000000" x="0" y="513.9" width="1464" height="24.65" shape-rendering="crispEdges"/><rect fill="#000000" x="0" y="538.3" width="1464" height="24.65" shape-rendering="crispEdges"/><rect fill="#000000" x="0" y="562.7" width="1464" height="24.65" shape-rendering="crispEdges"/><rect fill="#000000" x="0" y="587.1" width="1464" height="24.65" shape-rendering="crispEdges"/><rect fill="#000000" x="0" y="611.5" width="1464" height="24.65" shape-rendering="crispEdges"/><rect fill="#000000" x="0" y="635.9" width="1464" height="24.65" shape-rendering="crispEdges"/><rect fill="#000000" x="0" y="660.3" width="1464" height="24.65" shape-rendering="crispEdges"/><rect fill="#000000" x="0" y="684.7" width="1464" height="24.65" shape-rendering="crispEdges"/><rect fill="#000000" x="0" y="709.1" width="1464" height="24.65" shape-rendering="crispEdges"/><rect fill="#000000" x="0" y="733.5" width="1464" height="24.65" shape-rendering="crispEdges"/><rect fill="#000000" x="0" y="757.9" width="1464" height="24.65" shape-rendering="crispEdges"/><rect fill="#000000" x="0" y="782.3" width="1464" height="24.65" shape-rendering="crispEdges"/><rect fill="#000000" x="0" y="806.7" width="1464" height="24.65" shape-rendering="crispEdges"/><rect fill="#000000" x="0" y="831.1" width="1464" height="24.65" shape-rendering="crispEdges"/><rect fill="#000000" x="0" y="855.5" width="1464" height="24.65" shape-rendering="crispEdges"/><rect fill="#000000" x="0" y="879.9" width="1464" height="24.65" shape-rendering="crispEdges"/><rect fill="#000000" x="0" y="904.3" width="1464" height="24.65" shape-rendering="crispEdges"/><rect fill="#000000" x="0" y="928.7" width="1464" height="24.65" shape-rendering="crispEdges"/><rect fill="#172127" x="0" y="953.1" width="61" height="24.65" shape-rendering="crispEdges"/><rect fill="#172127" x="61" y="953.1" width="61" height="24.65" shape-rendering="crispEdges"/><rect fill="#172127" x="122" y="953.1" width="36.6" height="24.65" shape-rendering="crispEdges"/><rect fill="#172127" x="158.6" y="953.1" width="134.2" height="24.65" shape-rendering="crispEdges"/><rect fill="#172127" x="292.8" y="953.1" width="36.6" height="24.65" shape-rendering="crispEdges"/><rect fill="#172127" x="329.4" y="953.1" width="85.4" height="24.65" shape-rendering="crispEdges"/><rect fill="#172127" x="414.8" y="953.1" width="36.6" height="24.65" shape-rendering="crispEdges"/><rect fill="#172127" x="451.4" y="953.1" width="122" height="24.65" shape-rendering="crispEdges"/><rect fill="#172127" x="573.4" y="953.1" width="36.6" height="24.65" shape-rendering="crispEdges"/><rect fill="#172127" x="610" y="953.1" width="134.2" height="24.65" shape-rendering="crispEdges"/><rect fill="#172127" x="744.2" y="953.1" width="36.6" height="24.65" shape-rendering="crispEdges"/><rect fill="#172127" x="780.8" y="953.1" width="109.8" height="24.65" shape-rendering="crispEdges"/><rect fill="#172127" x="890.6" y="953.1" width="36.6" height="24.65" shape-rendering="crispEdges"/><rect fill="#172127" x="927.2" y="953.1" width="158.6" height="24.65" shape-rendering="crispEdges"/><rect fill="#172127" x="1085.8" y="953.1" width="36.6" height="24.65" shape-rendering="crispEdges"/><rect fill="#172127" x="1122.4" y="953.1" width="97.6" height="24.65" shape-rendering="crispEdges"/><rect fill="#172127" x="1220" y="953.1" width="36.6" height="24.65" shape-rendering="crispEdges"/><rect fill="#172127" x="1256.6" y="953.1" width="61" height="24.65" shape-rendering="crispEdges"/><rect fill="#172127" x="1317.6" y="953.1" width="12.2" height="24.65" shape-rendering="crispEdges"/><rect fill="#172127" x="1329.8" y="953.1" width="24.4" height="24.65" shape-rendering="crispEdges"/><rect fill="#172127" x="1354.2" y="953.1" width="97.6" height="24.65" shape-rendering="crispEdges"/><rect fill="#172127" x="1451.8" y="953.1" width="12.2" height="24.65" shape-rendering="crispEdges"/>
    <g class="terminal-matrix">
    <text class="terminal-r2" x="12.2" y="20" textLength="158.6" clip-path="url(#terminal-line-0)">SHIP&#160;COMPUTER</text><text class="terminal-r1" x="1464" y="20" textLength="12.2" clip-path="url(#terminal-line-0)">
</text><text class="terminal-r3" x="12.2" y="44.4" textLength="122" clip-path="url(#terminal-line-1)">Navigation</text><text class="terminal-r4" x="158.6" y="44.4" textLength="97.6" clip-path="url(#terminal-line-1)">Commerce</text><text class="terminal-r3" x="280.6" y="44.4" textLength="134.2" clip-path="url(#terminal-line-1)">Exploration</text><text class="terminal-r3" x="439.2" y="44.4" textLength="109.8" clip-path="url(#terminal-line-1)">Relations</text><text class="terminal-r3" x="573.4" y="44.4" textLength="85.4" clip-path="url(#terminal-line-1)">Records</text><text class="terminal-r1" x="1464" y="44.4" textLength="12.2" clip-path="url(#terminal-line-1)">
</text><text class="terminal-r5" x="0" y="68.8" textLength="158.6" clip-path="url(#terminal-line-2)">━━━━━━━━━━━━╸</text><text class="terminal-r6" x="158.6" y="68.8" textLength="97.6" clip-path="url(#terminal-line-2)">━━━━━━━━</text><text class="terminal-r5" x="256.2" y="68.8" textLength="1207.8" clip-path="url(#terminal-line-2)">╺━━━━━━━━━━━━━━━━━━━━━━━━━━━━━━━━━━━━━━━━━━━━━━━━━━━━━━━━━━━━━━━━━━━━━━━━━━━━━━━━━━━━━━━━━━━━━━━━━━</text><text class="terminal-r1" x="1464" y="68.8" textLength="12.2" clip-path="url(#terminal-line-2)">
</text><text class="terminal-r4" x="12.2" y="93.2" textLength="61" clip-path="url(#terminal-line-3)">Ports</text><text class="terminal-r3" x="97.6" y="93.2" textLength="61" clip-path="url(#terminal-line-3)">Trade</text><text class="terminal-r3" x="183" y="93.2" textLength="73.2" clip-path="url(#terminal-line-3)">Market</text><text class="terminal-r1" x="1464" y="93.2" textLength="12.2" clip-path="url(#terminal-line-3)">
</text><text class="terminal-r5" x="0" y="117.6" textLength="12.2" clip-path="url(#terminal-line-4)">╸</text><text class="terminal-r6" x="12.2" y="117.6" textLength="61" clip-path="url(#terminal-line-4)">━━━━━</text><text class="terminal-r5" x="73.2" y="117.6" textLength="1390.8" clip-path="url(#terminal-line-4)">╺━━━━━━━━━━━━━━━━━━━━━━━━━━━━━━━━━━━━━━━━━━━━━━━━━━━━━━━━━━━━━━━━━━━━━━━━━━━━━━━━━━━━━━━━━━━━━━━━━━━━━━━━━━━━━━━━━</text><text class="terminal-r1" x="1464" y="117.6" textLength="12.2" clip-path="url(#terminal-line-4)">
</text><text class="terminal-r1" x="1464" y="142" textLength="12.2" clip-path="url(#terminal-line-5)">
</text><text class="terminal-r7" x="24.4" y="166.4" textLength="183" clip-path="url(#terminal-line-6)">PORTS&#160;DIRECTORY</text><text class="terminal-r8" x="305" y="166.4" textLength="341.6" clip-path="url(#terminal-line-6)">charted&#160;ports,&#160;nearest&#160;first</text><text class="terminal-r1" x="1464" y="166.4" textLength="12.2" clip-path="url(#terminal-line-6)">
</text><text class="terminal-r1" x="1464" y="190.8" textLength="12.2" clip-path="url(#terminal-line-7)">
</text><text class="terminal-r9" x="36.6" y="215.2" textLength="109.8" clip-path="url(#terminal-line-8)">/&#160;filter…</text><text class="terminal-r1" x="1464" y="215.2" textLength="12.2" clip-path="url(#terminal-line-8)">
</text><text class="terminal-r1" x="1464" y="239.6" textLength="12.2" clip-path="url(#terminal-line-9)">
</text><text class="terminal-r7" x="24.4" y="264" textLength="122" clip-path="url(#terminal-line-10)">&#160;Sector&#160;↕&#160;</text><text class="terminal-r7" x="146.4" y="264" textLength="195.2" clip-path="url(#terminal-line-10)">&#160;Port&#160;↕&#160;&#160;&#160;&#160;&#160;&#160;&#160;&#160;&#160;</text><text class="terminal-r7" x="341.6" y="264" textLength="122" clip-path="url(#terminal-line-10)">&#160;Class&#160;&#160;&#160;&#160;</text><text class="terminal-r7" x="463.6" y="264" textLength="73.2" clip-path="url(#terminal-line-10)">&#160;Buys&#160;</text><text class="terminal-r7" x="536.8" y="264" textLength="195.2" clip-path="url(#terminal-line-10)">&#160;Sells&#160;&#160;&#160;&#160;&#160;&#160;&#160;&#160;&#160;&#160;</text><text class="terminal-r7" x="732" y="264" textLength="97.6" clip-path="url(#terminal-line-10)">&#160;Dist&#160;↕&#160;</text><text class="terminal-r1" x="1464" y="264" textLength="12.2" clip-path="url(#terminal-line-10)">
</text><text class="terminal-r4" x="24.4" y="288.4" textLength="122" clip-path="url(#terminal-line-11)">&#160;S10107&#160;&#160;&#160;</text><text class="terminal-r4" x="146.4" y="288.4" textLength="195.2" clip-path="url(#terminal-line-11)">&#160;Vanguard&#160;Prime&#160;</text><text class="terminal-r4" x="341.6" y="288.4" textLength="122" clip-path="url(#terminal-line-11)">&#160;StarDock&#160;</text><text class="terminal-r4" x="463.6" y="288.4" textLength="73.2" clip-path="url(#terminal-line-11)">&#160;—&#160;&#160;&#160;&#160;</text><text class="terminal-r4" x="536.8" y="288.4" textLength="195.2" clip-path="url(#terminal-line-11)">&#160;Fuel,&#160;Org,&#160;Equ&#160;</text><text class="terminal-r4" x="732" y="288.4" textLength="97.6" clip-path="url(#terminal-line-11)">&#160;&#160;&#160;&#160;&#160;&#160;0&#160;</text><text class="terminal-r1" x="1464" y="288.4" textLength="12.2" clip-path="url(#terminal-line-11)">
</text><text class="terminal-r1" x="1464" y="312.8" textLength="12.2" clip-path="url(#terminal-line-12)">
</text><text class="terminal-r11" x="24.4" y="337.2" textLength="12.2" clip-path="url(#terminal-line-13)">P</text><text class="terminal-r12" x="36.6" y="337.2" textLength="219.6" clip-path="url(#terminal-line-13)">&#160;Plot&#160;route&#160;&#160;&#160;·&#160;&#160;&#160;</text><text class="terminal-r11" x="256.2" y="337.2" textLength="12.2" clip-path="url(#terminal-line-13)">V</text><text class="terminal-r12" x="268.4" y="337.2" textLength="390.4" clip-path="url(#terminal-line-13)">&#160;Toggle&#160;highlighted&#160;sector&#160;avoid</text><text class="terminal-r1" x="1464" y="337.2" textLength="12.2" clip-path="url(#terminal-line-13)">
</text><text class="terminal-r1" x="1464" y="361.6" textLength="12.2" clip-path="url(#terminal-line-14)">
</text><text class="terminal-r1" x="1464" y="386" textLength="12.2" clip-path="url(#terminal-line-15)">
</text><text class="terminal-r1" x="1464" y="410.4" textLength="12.2" clip-path="url(#terminal-line-16)">
</text><text class="terminal-r1" x="1464" y="434.8" textLength="12.2" clip-path="url(#terminal-line-17)">
</text><text class="terminal-r1" x="1464" y="459.2" textLength="12.2" clip-path="url(#terminal-line-18)">
</text><text class="terminal-r1" x="1464" y="483.6" textLength="12.2" clip-path="url(#terminal-line-19)">
</text><text class="terminal-r1" x="1464" y="508" textLength="12.2" clip-path="url(#terminal-line-20)">
</text><text class="terminal-r1" x="1464" y="532.4" textLength="12.2" clip-path="url(#terminal-line-21)">
</text><text class="terminal-r1" x="1464" y="556.8" textLength="12.2" clip-path="url(#terminal-line-22)">
</text><text class="terminal-r1" x="1464" y="581.2" textLength="12.2" clip-path="url(#terminal-line-23)">
</text><text class="terminal-r1" x="1464" y="605.6" textLength="12.2" clip-path="url(#terminal-line-24)">
</text><text class="terminal-r1" x="1464" y="630" textLength="12.2" clip-path="url(#terminal-line-25)">
</text><text class="terminal-r1" x="1464" y="654.4" textLength="12.2" clip-path="url(#terminal-line-26)">
</text><text class="terminal-r1" x="1464" y="678.8" textLength="12.2" clip-path="url(#terminal-line-27)">
</text><text class="terminal-r1" x="1464" y="703.2" textLength="12.2" clip-path="url(#terminal-line-28)">
</text><text class="terminal-r1" x="1464" y="727.6" textLength="12.2" clip-path="url(#terminal-line-29)">
</text><text class="terminal-r1" x="1464" y="752" textLength="12.2" clip-path="url(#terminal-line-30)">
</text><text class="terminal-r1" x="1464" y="776.4" textLength="12.2" clip-path="url(#terminal-line-31)">
</text><text class="terminal-r1" x="1464" y="800.8" textLength="12.2" clip-path="url(#terminal-line-32)">
</text><text class="terminal-r1" x="1464" y="825.2" textLength="12.2" clip-path="url(#terminal-line-33)">
</text><text class="terminal-r1" x="1464" y="849.6" textLength="12.2" clip-path="url(#terminal-line-34)">
</text><text class="terminal-r1" x="1464" y="874" textLength="12.2" clip-path="url(#terminal-line-35)">
</text><text class="terminal-r1" x="1464" y="898.4" textLength="12.2" clip-path="url(#terminal-line-36)">
</text><text class="terminal-r1" x="1464" y="922.8" textLength="12.2" clip-path="url(#terminal-line-37)">
</text><text class="terminal-r1" x="1464" y="947.2" textLength="12.2" clip-path="url(#terminal-line-38)">
</text><text class="terminal-r13" x="0" y="971.6" textLength="61" clip-path="url(#terminal-line-39)">&#160;esc&#160;</text><text class="terminal-r4" x="61" y="971.6" textLength="61" clip-path="url(#terminal-line-39)">Back&#160;</text><text class="terminal-r13" x="122" y="971.6" textLength="36.6" clip-path="url(#terminal-line-39)">&#160;p&#160;</text><text class="terminal-r4" x="158.6" y="971.6" textLength="134.2" clip-path="url(#terminal-line-39)">Plot&#160;route&#160;</text><text class="terminal-r13" x="292.8" y="971.6" textLength="36.6" clip-path="url(#terminal-line-39)">&#160;g&#160;</text><text class="terminal-r4" x="329.4" y="971.6" textLength="85.4" clip-path="url(#terminal-line-39)">Engage&#160;</text><text class="terminal-r13" x="414.8" y="971.6" textLength="36.6" clip-path="url(#terminal-line-39)">&#160;r&#160;</text><text class="terminal-r4" x="451.4" y="971.6" textLength="122" clip-path="url(#terminal-line-39)">Route&#160;to…&#160;</text><text class="terminal-r13" x="573.4" y="971.6" textLength="36.6" clip-path="url(#terminal-line-39)">&#160;s&#160;</text><text class="terminal-r4" x="610" y="971.6" textLength="134.2" clip-path="url(#terminal-line-39)">Seize&#160;Core&#160;</text><text class="terminal-r13" x="744.2" y="971.6" textLength="36.6" clip-path="url(#terminal-line-39)">&#160;a&#160;</text><text class="terminal-r4" x="780.8" y="971.6" textLength="109.8" clip-path="url(#terminal-line-39)">Add&#160;note&#160;</text><text class="terminal-r13" x="890.6" y="971.6" textLength="36.6" clip-path="url(#terminal-line-39)">&#160;v&#160;</text><text class="terminal-r4" x="927.2" y="971.6" textLength="158.6" clip-path="url(#terminal-line-39)">Avoid&#160;sector&#160;</text><text class="terminal-r13" x="1085.8" y="971.6" textLength="36.6" clip-path="url(#terminal-line-39)">&#160;d&#160;</text><text class="terminal-r4" x="1122.4" y="971.6" textLength="97.6" clip-path="url(#terminal-line-39)">Deliver&#160;</text><text class="terminal-r13" x="1220" y="971.6" textLength="36.6" clip-path="url(#terminal-line-39)">&#160;x&#160;</text><text class="terminal-r4" x="1256.6" y="971.6" textLength="61" clip-path="url(#terminal-line-39)">Aband</text><text class="terminal-r14" x="1317.6" y="971.6" textLength="12.2" clip-path="url(#terminal-line-39)">▏</text><text class="terminal-r13" x="1329.8" y="971.6" textLength="24.4" clip-path="url(#terminal-line-39)">^p</text><text class="terminal-r4" x="1354.2" y="971.6" textLength="97.6" clip-path="url(#terminal-line-39)">&#160;palette</text>
    </g>
    </g>
</svg>
