<svg class="rich-terminal" viewBox="0 0 1238 879.5999999999999" xmlns="http://www.w3.org/2000/svg">
    <!-- Generated with Rich https://www.textualize.io -->
    <style>

    @font-face {
        font-family: "Fira Code";
        src: local("FiraCode-Regular"),
                url("https://cdnjs.cloudflare.com/ajax/libs/firacode/6.2.0/woff2/FiraCode-Regular.woff2") format("woff2"),
                url("https://cdnjs.cloudflare.com/ajax/libs/firacode/6.2.0/woff/FiraCode-Regular.woff") format("woff");
        font-style: normal;
        font-weight: 400;
    }
    @font-face {
        font-family: "Fira Code";
        src: local("FiraCode-Bold"),
                url("https://cdnjs.cloudflare.com/ajax/libs/firacode/6.2.0/woff2/FiraCode-Bold.woff2") format("woff2"),
                url("https://cdnjs.cloudflare.com/ajax/libs/firacode/6.2.0/woff/FiraCode-Bold.woff") format("woff");
        font-style: bold;
        font-weight: 700;
    }

    .terminal-matrix {
        font-family: Fira Code, monospace;
        font-size: 20px;
        line-height: 24.4px;
        font-variant-east-asian: full-width;
    }

    .terminal-title {
        font-size: 18px;
        font-weight: bold;
        font-family: arial;
    }

    .terminal-r1 { fill: #c5c8c6 }
.terminal-r2 { fill: #fea62b }
.terminal-r3 { fill: #e0e0e0 }
.terminal-r4 { fill: #ff00ff }
.terminal-r5 { fill: #00ffff }
.terminal-r6 { fill: #ffff00 }
.terminal-r7 { fill: #0178d4 }
.terminal-r8 { fill: #a0a0a0;font-style: italic; }
.terminal-r9 { fill: #a0a0a0 }
    </style>

    <defs>
    <clipPath id="terminal-clip-terminal">
      <rect x="0" y="0" width="1219.0" height="828.5999999999999" />
    </clipPath>
    <clipPath id="terminal-line-0">
    <rect x="0" y="1.5" width="1220" height="24.65"/>
            </clipPath>
<clipPath id="terminal-line-1">
    <rect x="0" y="25.9" width="1220" height="24.65"/>
            </clipPath>
<clipPath id="terminal-line-2">
    <rect x="0" y="50.3" width="1220" height="24.65"/>
            </clipPath>
<clipPath id="terminal-line-3">
    <rect x="0" y="74.7" width="1220" height="24.65"/>
            </clipPath>
<clipPath id="terminal-line-4">
    <rect x="0" y="99.1" width="1220" height="24.65"/>
            </clipPath>
<clipPath id="terminal-line-5">
    <rect x="0" y="123.5" width="1220" height="24.65"/>
            </clipPath>
<clipPath id="terminal-line-6">
    <rect x="0" y="147.9" width="1220" height="24.65"/>
            </clipPath>
<clipPath id="terminal-line-7">
    <rect x="0" y="172.3" width="1220" height="24.65"/>
            </clipPath>
<clipPath id="terminal-line-8">
    <rect x="0" y="196.7" width="1220" height="24.65"/>
            </clipPath>
<clipPath id="terminal-line-9">
    <rect x="0" y="221.1" width="1220" height="24.65"/>
            </clipPath>
<clipPath id="terminal-line-10">
    <rect x="0" y="245.5" width="1220" height="24.65"/>
            </clipPath>
<clipPath id="terminal-line-11">
    <rect x="0" y="269.9" width="1220" height="24.65"/>
            </clipPath>
<clipPath id="terminal-line-12">
    <rect x="0" y="294.3" width="1220" height="24.65"/>
            </clipPath>
<clipPath id="terminal-line-13">
    <rect x="0" y="318.7" width="1220" height="24.65"/>
            </clipPath>
<clipPath id="terminal-line-14">
    <rect x="0" y="343.1" width="1220" height="24.65"/>
            </clipPath>
<clipPath id="terminal-line-15">
    <rect x="0" y="367.5" width="1220" height="24.65"/>
            </clipPath>
<clipPath id="terminal-line-16">
    <rect x="0" y="391.9" width="1220" height="24.65"/>
            </clipPath>
<clipPath id="terminal-line-17">
    <rect x="0" y="416.3" width="1220" height="24.65"/>
            </clipPath>
<clipPath id="terminal-line-18">
    <rect x="0" y="440.7" width="1220" height="24.65"/>
            </clipPath>
<clipPath id="terminal-line-19">
    <rect x="0" y="465.1" width="1220" height="24.65"/>
            </clipPath>
<clipPath id="terminal-line-20">
    <rect x="0" y="489.5" width="1220" height="24.65"/>
            </clipPath>
<clipPath id="terminal-line-21">
    <rect x="0" y="513.9" width="1220" height="24.65"/>
            </clipPath>
<clipPath id="terminal-line-22">
    <rect x="0" y="538.3" width="1220" height="24.65"/>
            </clipPath>
<clipPath id="terminal-line-23">
    <rect x="0" y="562.7" width="1220" height="24.65"/>
            </clipPath>
<clipPath id="terminal-line-24">
    <rect x="0" y="587.1" width="1220" height="24.65"/>
            </clipPath>
<clipPath id="terminal-line-25">
    <rect x="0" y="611.5" width="1220" height="24.65"/>
            </clipPath>
<clipPath id="terminal-line-26">
    <rect x="0" y="635.9" width="1220" height="24.65"/>
            </clipPath>
<clipPath id="terminal-line-27">
    <rect x="0" y="660.3" width="1220" height="24.65"/>
            </clipPath>
<clipPath id="terminal-line-28">
    <rect x="0" y="684.7" width="1220" height="24.65"/>
            </clipPath>
<clipPath id="terminal-line-29">
    <rect x="0" y="709.1" width="1220" height="24.65"/>
            </clipPath>
<clipPath id="terminal-line-30">
    <rect x="0" y="733.5" width="1220" height="24.65"/>
            </clipPath>
<clipPath id="terminal-line-31">
    <rect x="0" y="757.9" width="1220" height="24.65"/>
            </clipPath>
<clipPath id="terminal-line-32">
    <rect x="0" y="782.3" width="1220" height="24.65"/>
            </clipPath>
    </defs>

    <rect fill="#292929" stroke="rgba(255,255,255,0.35)" stroke-width="1" x="1" y="1" width="1236" height="877.6" rx="8"/><text class="terminal-title" fill="#c5c8c6" text-anchor="middle" x="618" y="27">_WorkbenchApp</text>
            <g transform="translate(26,22)">
            <circle cx="0" cy="0" r="7" fill="#ff5f57"/>
            <circle cx="22" cy="0" r="7" fill="#febc2e"/>
            <circle cx="44" cy="0" r="7" fill="#28c840"/>
            </g>
        
    <g transform="translate(9, 41)" clip-path="url(#terminal-clip-terminal)">
    <rect fill="#121212" x="0" y="1.5" width="1220" height="24.65" shape-rendering="crispEdges"/><rect fill="#121212" x="0" y="25.9" width="12.2" height="24.65" shape-rendering="crispEdges"/><rect fill="#121212" x="12.2" y="25.9" width="585.6" height="24.65" shape-rendering="crispEdges"/><rect fill="#121212" x="597.8" y="25.9" width="12.2" height="24.65" shape-rendering="crispEdges"/><rect fill="#121212" x="610" y="25.9" width="585.6" height="24.65" shape-rendering="crispEdges"/><rect fill="#121212" x="1195.6" y="25.9" width="24.4" height="24.65" shape-rendering="crispEdges"/><rect fill="#121212" x="0" y="50.3" width="12.2" height="24.65" shape-rendering="crispEdges"/><rect fill="#121212" x="12.2" y="50.3" width="12.2" height="24.65" shape-rendering="crispEdges"/><rect fill="#121212" x="24.4" y="50.3" width="12.2" height="24.65" shape-rendering="crispEdges"/><rect fill="#121212" x="36.6" y="50.3" width="341.6" height="24.65" shape-rendering="crispEdges"/><rect fill="#121212" x="378.2" y="50.3" width="146.4" height="24.65" shape-rendering="crispEdges"/><rect fill="#121212" x="524.6" y="50.3" width="48.8" height="24.65" shape-rendering="crispEdges"/><rect fill="#121212" x="573.4" y="50.3" width="12.2" height="24.65" shape-rendering="crispEdges"/><rect fill="#121212" x="585.6" y="50.3" width="12.2" height="24.65" shape-rendering="crispEdges"/><rect fill="#121212" x="597.8" y="50.3" width="12.2" height="24.65" shape-rendering="crispEdges"/><rect fill="#121212" x="610" y="50.3" width="12.2" height="24.65" shape-rendering="crispEdges"/><rect fill="#121212" x="622.2" y="50.3" width="12.2" height="24.65" shape-rendering="crispEdges"/><rect fill="#121212" x="634.4" y="50.3" width="341.6" height="24.65" shape-rendering="crispEdges"/><rect fill="#121212" x="976" y="50.3" width="134.2" height="24.65" shape-rendering="crispEdges"/><rect fill="#121212" x="1110.2" y="50.3" width="61" height="24.65" shape-rendering="crispEdges"/><rect fill="#121212" x="1171.2" y="50.3" width="12.2" height="24.65" shape-rendering="crispEdges"/><rect fill="#121212" x="1183.4" y="50.3" width="12.2" height="24.65" shape-rendering="crispEdges"/><rect fill="#121212" x="1195.6" y="50.3" width="24.4" height="24.65" shape-rendering="crispEdges"/><rect fill="#121212" x="0" y="74.7" width="12.2" height="24.65" shape-rendering="crispEdges"/><rect fill="#121212" x="12.2" y="74.7" width="12.2" height="24.65" shape-rendering="crispEdges"/><rect fill="#121212" x="24.4" y="74.7" width="12.2" height="24.65" shape-rendering="crispEdges"/><rect fill="#121212" x="36.6" y="74.7" width="195.2" height="24.65" shape-rendering="crispEdges"/><rect fill="#121212" x="231.8" y="74.7" width="292.8" height="24.65" shape-rendering="crispEdges"/><rect fill="#121212" x="524.6" y="74.7" width="48.8" height="24.65" shape-rendering="crispEdges"/><rect fill="#121212" x="573.4" y="74.7" width="12.2" height="24.65" shape-rendering="crispEdges"/><rect fill="#121212" x="585.6" y="74.7" width="12.2" height="24.65" shape-rendering="crispEdges"/><rect fill="#121212" x="597.8" y="74.7" width="12.2" height="24.65" shape-rendering="crispEdges"/><rect fill="#121212" x="610" y="74.7" width="12.2" height="24.65" shape-rendering="crispEdges"/><rect fill="#121212" x="622.2" y="74.7" width="12.2" height="24.65" shape-rendering="crispEdges"/><rect fill="#121212" x="634.4" y="74.7" width="195.2" height="24.65" shape-rendering="crispEdges"/><rect fill="#121212" x="829.6" y="74.7" width="280.6" height="24.65" shape-rendering="crispEdges"/><rect fill="#121212" x="1110.2" y="74.7" width="61" height="24.65" shape-rendering="crispEdges"/><rect fill="#121212" x="1171.2" y="74.7" width="12.2" height="24.65" shape-rendering="crispEdges"/><rect fill="#121212" x="1183.4" y="74.7" width="12.2" height="24.65" shape-rendering="crispEdges"/><rect fill="#121212" x="1195.6" y="74.7" width="24.4" height="24.65" shape-rendering="crispEdges"/><rect fill="#121212" x="0" y="99.1" width="12.2" height="24.65" shape-rendering="crispEdges"/><rect fill="#121212" x="12.2" y="99.1" width="12.2" height="24.65" shape-rendering="crispEdges"/><rect fill="#121212" x="24.4" y="99.1" width="12.2" height="24.65" shape-rendering="crispEdges"/><rect fill="#121212" x="36.6" y="99.1" width="341.6" height="24.65" shape-rendering="crispEdges"/><rect fill="#121212" x="378.2" y="99.1" width="146.4" height="24.65" shape-rendering="crispEdges"/><rect fill="#121212" x="524.6" y="99.1" width="48.8" height="24.65" shape-rendering="crispEdges"/><rect fill="#121212" x="573.4" y="99.1" width="12.2" height="24.65" shape-rendering="crispEdges"/><rect fill="#121212" x="585.6" y="99.1" width="12.2" height="24.65" shape-rendering="crispEdges"/><rect fill="#121212" x="597.8" y="99.1" width="12.2" height="24.65" shape-rendering="crispEdges"/><rect fill="#121212" x="610" y="99.1" width="12.2" height="24.65" shape-rendering="crispEdges"/><rect fill="#121212" x="622.2" y="99.1" width="12.2" height="24.65" shape-rendering="crispEdges"/><rect fill="#121212" x="634.4" y="99.1" width="341.6" height="24.65" shape-rendering="crispEdges"/><rect fill="#121212" x="976" y="99.1" width="134.2" height="24.65" shape-rendering="crispEdges"/><rect fill="#121212" x="1110.2" y="99.1" width="61" height="24.65" shape-rendering="crispEdges"/><rect fill="#121212" x="1171.2" y="99.1" width="12.2" height="24.65" shape-rendering="crispEdges"/><rect fill="#121212" x="1183.4" y="99.1" width="12.2" height="24.65" shape-rendering="crispEdges"/><rect fill="#121212" x="1195.6" y="99.1" width="24.4" height="24.65" shape-rendering="crispEdges"/><rect fill="#121212" x="0" y="123.5" width="12.2" height="24.65" shape-rendering="crispEdges"/><rect fill="#121212" x="12.2" y="123.5" width="585.6" height="24.65" shape-rendering="crispEdges"/><rect fill="#121212" x="597.8" y="123.5" width="12.2" height="24.65" shape-rendering="crispEdges"/><rect fill="#121212" x="610" y="123.5" width="585.6" height="24.65" shape-rendering="crispEdges"/><rect fill="#121212" x="1195.6" y="123.5" width="24.4" height="24.65" shape-rendering="crispEdges"/><rect fill="#121212" x="0" y="147.9" width="1220" height="24.65" shape-rendering="crispEdges"/><rect fill="#121212" x="0" y="172.3" width="12.2" height="24.65" shape-rendering="crispEdges"/><rect fill="#121212" x="12.2" y="172.3" width="585.6" height="24.65" shape-rendering="crispEdges"/><rect fill="#121212" x="597.8" y="172.3" width="622.2" height="24.65" shape-rendering="crispEdges"/><rect fill="#121212" x="0" y="196.7" width="12.2" height="24.65" shape-rendering="crispEdges"/><rect fill="#121212" x="12.2" y="196.7" width="12.2" height="24.65" shape-rendering="crispEdges"/><rect fill="#121212" x="24.4" y="196.7" width="12.2" height="24.65" shape-rendering="crispEdges"/><rect fill="#121212" x="36.6" y="196.7" width="341.6" height="24.65" shape-rendering="crispEdges"/><rect fill="#121212" x="378.2" y="196.7" width="134.2" height="24.65" shape-rendering="crispEdges"/><rect fill="#121212" x="512.4" y="196.7" width="61" height="24.65" shape-rendering="crispEdges"/><rect fill="#121212" x="573.4" y="196.7" width="12.2" height="24.65" shape-rendering="crispEdges"/><rect fill="#121212" x="585.6" y="196.7" width="12.2" height="24.65" shape-rendering="crispEdges"/><rect fill="#121212" x="597.8" y="196.7" width="622.2" height="24.65" shape-rendering="crispEdges"/><rect fill="#121212" x="0" y="221.1" width="12.2" height="24.65" shape-rendering="crispEdges"/><rect fill="#121212" x="12.2" y="221.1" width="12.2" height="24.65" shape-rendering="crispEdges"/><rect fill="#121212" x="24.4" y="221.1" width="12.2" height="24.65" shape-rendering="crispEdges"/><rect fill="#121212" x="36.6" y="221.1" width="195.2" height="24.65" shape-rendering="crispEdges"/><rect fill="#121212" x="231.8" y="221.1" width="280.6" height="24.65" shape-rendering="crispEdges"/><rect fill="#121212" x="512.4" y="221.1" width="61" height="24.65" shape-rendering="crispEdges"/><rect fill="#121212" x="573.4" y="221.1" width="12.2" height="24.65" shape-rendering="crispEdges"/><rect fill="#121212" x="585.6" y="221.1" width="12.2" height="24.65" shape-rendering="crispEdges"/><rect fill="#121212" x="597.8" y="221.1" width="622.2" height="24.65" shape-rendering="crispEdges"/><rect fill="#121212" x="0" y="245.5" width="12.2" height="24.65" shape-rendering="crispEdges"/><rect fill="#121212" x="12.2" y="245.5" width="12.2" height="24.65" shape-rendering="crispEdges"/><rect fill="#121212" x="24.4" y="245.5" width="12.2" height="24.65" shape-rendering="crispEdges"/><rect fill="#121212" x="36.6" y="245.5" width="341.6" height="24.65" shape-rendering="crispEdges"/><rect fill="#121212" x="378.2" y="245.5" width="134.2" height="24.65" shape-rendering="crispEdges"/><rect fill="#121212" x="512.4" y="245.5" width="61" height="24.65" shape-rendering="crispEdges"/><rect fill="#121212" x="573.4" y="245.5" width="12.2" height="24.65" shape-rendering="crispEdges"/><rect fill="#121212" x="585.6" y="245.5" width="12.2" height="24.65" shape-rendering="crispEdges"/><rect fill="#121212" x="597.8" y="245.5" width="622.2" height="24.65" shape-rendering="crispEdges"/><rect fill="#121212" x="0" y="269.9" width="12.2" height="24.65" shape-rendering="crispEdges"/><rect fill="#121212" x="12.2" y="269.9" width="585.6" height="24.65" shape-rendering="crispEdges"/><rect fill="#121212" x="597.8" y="269.9" width="622.2" height="24.65" shape-rendering="crispEdges"/><rect fill="#121212" x="0" y="294.3" width="1220" height="24.65" shape-rendering="crispEdges"/><rect fill="#121212" x="0" y="318.7" width="12.2" height="24.65" shape-rendering="crispEdges"/><rect fill="#121212" x="12.2" y="318.7" width="1195.6" height="24.65" shape-rendering="crispEdges"/><rect fill="#121212" x="1207.8" y="318.7" width="12.2" height="24.65" shape-rendering="crispEdges"/><rect fill="#121212" x="0" y="343.1" width="12.2" height="24.65" shape-rendering="crispEdges"/><rect fill="#121212" x="12.2" y="343.1" width="12.2" height="24.65" shape-rendering="crispEdges"/><rect fill="#121212" x="24.4" y="343.1" width="12.2" height="24.65" shape-rendering="crispEdges"/><rect fill="#121212" x="36.6" y="343.1" width="329.4" height="24.65" shape-rendering="crispEdges"/><rect fill="#121212" x="366" y="343.1" width="829.6" height="24.65" shape-rendering="crispEdges"/><rect fill="#121212" x="1195.6" y="343.1" width="12.2" height="24.65" shape-rendering="crispEdges"/><rect fill="#121212" x="1207.8" y="343.1" width="12.2" height="24.65" shape-rendering="crispEdges"/><rect fill="#121212" x="0" y="367.5" width="12.2" height="24.65" shape-rendering="crispEdges"/><rect fill="#121212" x="12.2" y="367.5" width="12.2" height="24.65" shape-rendering="crispEdges"/><rect fill="#121212" x="24.4" y="367.5" width="24.4" height="24.65" shape-rendering="crispEdges"/><rect fill="#121212" x="48.8" y="367.5" width="329.4" height="24.65" shape-rendering="crispEdges"/><rect fill="#121212" x="378.2" y="367.5" width="817.4" height="24.65" shape-rendering="crispEdges"/><rect fill="#121212" x="1195.6" y="367.5" width="12.2" height="24.65" shape-rendering="crispEdges"/><rect fill="#121212" x="1207.8" y="367.5" width="12.2" height="24.65" shape-rendering="crispEdges"/><rect fill="#121212" x="0" y="391.9" width="12.2" height="24.65" shape-rendering="crispEdges"/><rect fill="#121212" x="12.2" y="391.9" width="12.2" height="24.65" shape-rendering="crispEdges"/><rect fill="#121212" x="24.4" y="391.9" width="24.4" height="24.65" shape-rendering="crispEdges"/><rect fill="#121212" x="48.8" y="391.9" width="866.2" height="24.65" shape-rendering="crispEdges"/><rect fill="#121212" x="915" y="391.9" width="280.6" height="24.65" shape-rendering="crispEdges"/><rect fill="#121212" x="1195.6" y="391.9" width="12.2" height="24.65" shape-rendering="crispEdges"/><rect fill="#121212" x="1207.8" y="391.9" width="12.2" height="24.65" shape-rendering="crispEdges"/><rect fill="#121212" x="0" y="416.3" width="12.2" height="24.65" shape-rendering="crispEdges"/><rect fill="#121212" x="12.2" y="416.3" width="1195.6" height="24.65" shape-rendering="crispEdges"/><rect fill="#121212" x="1207.8" y="416.3" width="12.2" height="24.65" shape-rendering="crispEdges"/><rect fill="#121212" x="0" y="440.7" width="1220" height="24.65" shape-rendering="crispEdges"/><rect fill="#121212" x="0" y="465.1" width="12.2" height="24.65" shape-rendering="crispEdges"/><rect fill="#121212" x="12.2" y="465.1" width="1049.2" height="24.65" shape-rendering="crispEdges"/><rect fill="#121212" x="1061.4" y="465.1" width="158.6" height="24.65" shape-rendering="crispEdges"/><rect fill="#121212" x="0" y="489.5" width="1220" height="24.65" shape-rendering="crispEdges"/><rect fill="#121212" x="0" y="513.9" width="1220" height="24.65" shape-rendering="crispEdges"/><rect fill="#121212" x="0" y="538.3" width="1220" height="24.65" shape-rendering="crispEdges"/><rect fill="#121212" x="0" y="562.7" width="1220" height="24.65" shape-rendering="crispEdges"/><rect fill="#121212" x="0" y="587.1" width="1220" height="24.65" shape-rendering="crispEdges"/><rect fill="#121212" x="0" y="611.5" width="1220" height="24.65" shape-rendering="crispEdges"/><rect fill="#121212" x="0" y="635.9" width="1220" height="24.65" shape-rendering="crispEdges"/><rect fill="#121212" x="0" y="660.3" width="1220" height="24.65" shape-rendering="crispEdges"/><rect fill="#121212" x="0" y="684.7" width="1220" height="24.65" shape-rendering="crispEdges"/><rect fill="#121212" x="0" y="709.1" width="1220" height="24.65" shape-rendering="crispEdges"/><rect fill="#121212" x="0" y="733.5" width="1220" height="24.65" shape-rendering="crispEdges"/><rect fill="#121212" x="0" y="757.9" width="1220" height="24.65" shape-rendering="crispEdges"/><rect fill="#121212" x="0" y="782.3" width="1220" height="24.65" shape-rendering="crispEdges"/><rect fill="#121212" x="0" y="806.7" width="1220" height="24.65" shape-rendering="crispEdges"/>
    <g class="terminal-matrix">
    <text class="terminal-r1" x="1220" y="20" textLength="12.2" clip-path="url(#terminal-line-0)">
</text><text class="terminal-r2" x="12.2" y="44.4" textLength="585.6" clip-path="url(#terminal-line-1)">┏━&#160;Fusion&#160;Core&#160;━━━━━━━━━━━━━━━━━━━━━━━━━━━━━━━━┓</text><text class="terminal-r2" x="610" y="44.4" textLength="585.6" clip-path="url(#terminal-line-1)">┏━&#160;Defense&#160;Grid&#160;━━━━━━━━━━━━━━━━━━━━━━━━━━━━━━━┓</text><text class="terminal-r1" x="1220" y="44.4" textLength="12.2" clip-path="url(#terminal-line-1)">
</text><text class="terminal-r2" x="12.2" y="68.8" textLength="12.2" clip-path="url(#terminal-line-2)">┃</text><text class="terminal-r3" x="36.6" y="68.8" textLength="341.6" clip-path="url(#terminal-line-2)">[▣]&#160;converter&#160;(I)&#160;◆&#160;keystone</text><text class="terminal-r4" x="524.6" y="68.8" textLength="48.8" clip-path="url(#terminal-line-2)">&#160;╭◉╮</text><text class="terminal-r2" x="585.6" y="68.8" textLength="12.2" clip-path="url(#terminal-line-2)">┃</text><text class="terminal-r2" x="610" y="68.8" textLength="12.2" clip-path="url(#terminal-line-2)">┃</text><text class="terminal-r3" x="634.4" y="68.8" textLength="341.6" clip-path="url(#terminal-line-2)">[▣]&#160;converter&#160;(I)&#160;◆&#160;keystone</text><text class="terminal-r5" x="1110.2" y="68.8" textLength="61" clip-path="url(#terminal-line-2)">◁&#160;┼&#160;▷</text><text class="terminal-r2" x="1183.4" y="68.8" textLength="12.2" clip-path="url(#terminal-line-2)">┃</text><text class="terminal-r1" x="1220" y="68.8" textLength="12.2" clip-path="url(#terminal-line-2)">
</text><text class="terminal-r2" x="12.2" y="93.2" textLength="12.2" clip-path="url(#terminal-line-3)">┃</text><text class="terminal-r3" x="36.6" y="93.2" textLength="195.2" clip-path="url(#terminal-line-3)">[▣]&#160;turbine&#160;(II)</text><text class="terminal-r4" x="524.6" y="93.2" textLength="48.8" clip-path="url(#terminal-line-3)">╞██╡</text><text class="terminal-r2" x="585.6" y="93.2" textLength="12.2" clip-path="url(#terminal-line-3)">┃</text><text class="terminal-r2" x="610" y="93.2" textLength="12.2" clip-path="url(#terminal-line-3)">┃</text><text class="terminal-r3" x="634.4" y="93.2" textLength="195.2" clip-path="url(#terminal-line-3)">[▣]&#160;turbine&#160;(II)</text><text class="terminal-r5" x="1110.2" y="93.2" textLength="61" clip-path="url(#terminal-line-3)">&#160;╲│╱&#160;</text><text class="terminal-r2" x="1183.4" y="93.2" textLength="12.2" clip-path="url(#terminal-line-3)">┃</text><text class="terminal-r1" x="1220" y="93.2" textLength="12.2" clip-path="url(#terminal-line-3)">
</text><text class="terminal-r2" x="12.2" y="117.6" textLength="12.2" clip-path="url(#terminal-line-4)">┃</text><text class="terminal-r3" x="36.6" y="117.6" textLength="341.6" clip-path="url(#terminal-line-4)">[▨]&#160;radiator&#160;(I)&#160;knocked-out</text><text class="terminal-r4" x="524.6" y="117.6" textLength="48.8" clip-path="url(#terminal-line-4)">&#160;╰◉╯</text><text class="terminal-r2" x="585.6" y="117.6" textLength="12.2" clip-path="url(#terminal-line-4)">┃</text><text class="terminal-r2" x="610" y="117.6" textLength="12.2" clip-path="url(#terminal-line-4)">┃</text><text class="terminal-r3" x="634.4" y="117.6" textLength="341.6" clip-path="url(#terminal-line-4)">[▨]&#160;radiator&#160;(I)&#160;knocked-out</text><text class="terminal-r5" x="1110.2" y="117.6" textLength="61" clip-path="url(#terminal-line-4)">&#160;&#160;◇&#160;&#160;</text><text class="terminal-r2" x="1183.4" y="117.6" textLength="12.2" clip-path="url(#terminal-line-4)">┃</text><text class="terminal-r1" x="1220" y="117.6" textLength="12.2" clip-path="url(#terminal-line-4)">
</text><text class="terminal-r2" x="12.2" y="142" textLength="585.6" clip-path="url(#terminal-line-5)">┗━━━━━━━━━━━━━━━━━━━━━━━━━━━━━━━━━&#160;→&#160;aspect&#160;3&#160;━┛</text><text class="terminal-r2" x="610" y="142" textLength="585.6" clip-path="url(#terminal-line-5)">┗━━━━━━━━━━━━━━━━━━━━━━━━━━━━━━━━━&#160;→&#160;aspect&#160;3&#160;━┛</text><text class="terminal-r1" x="1220" y="142" textLength="12.2" clip-path="url(#terminal-line-5)">
</text><text class="terminal-r1" x="1220" y="166.4" textLength="12.2" clip-path="url(#terminal-line-6)">
</text><text class="terminal-r2" x="12.2" y="190.8" textLength="585.6" clip-path="url(#terminal-line-7)">┏━&#160;Orbital&#160;Battery&#160;━━━━━━━━━━━━━━━━━━━━━━━━━━━━┓</text><text class="terminal-r1" x="1220" y="190.8" textLength="12.2" clip-path="url(#terminal-line-7)">
</text><text class="terminal-r2" x="12.2" y="215.2" textLength="12.2" clip-path="url(#terminal-line-8)">┃</text><text class="terminal-r3" x="36.6" y="215.2" textLength="341.6" clip-path="url(#terminal-line-8)">[▣]&#160;converter&#160;(I)&#160;◆&#160;keystone</text><text class="terminal-r6" x="512.4" y="215.2" textLength="61" clip-path="url(#terminal-line-8)">╒═╤═╕</text><text class="terminal-r2" x="585.6" y="215.2" textLength="12.2" clip-path="url(#terminal-line-8)">┃</text><text class="terminal-r1" x="1220" y="215.2" textLength="12.2" clip-path="url(#terminal-line-8)">
</text><text class="terminal-r2" x="12.2" y="239.6" textLength="12.2" clip-path="url(#terminal-line-9)">┃</text><text class="terminal-r3" x="36.6" y="239.6" textLength="195.2" clip-path="url(#terminal-line-9)">[▣]&#160;turbine&#160;(II)</text><text class="terminal-r6" x="512.4" y="239.6" textLength="61" clip-path="url(#terminal-line-9)">&#160;&#160;█══</text><text class="terminal-r2" x="585.6" y="239.6" textLength="12.2" clip-path="url(#terminal-line-9)">┃</text><text class="terminal-r1" x="1220" y="239.6" textLength="12.2" clip-path="url(#terminal-line-9)">
</text><text class="terminal-r2" x="12.2" y="264" textLength="12.2" clip-path="url(#terminal-line-10)">┃</text><text class="terminal-r3" x="36.6" y="264" textLength="341.6" clip-path="url(#terminal-line-10)">[▨]&#160;radiator&#160;(I)&#160;knocked-out</text><text class="terminal-r6" x="512.4" y="264" textLength="61" clip-path="url(#terminal-line-10)">╘═╧═╛</text><text class="terminal-r2" x="585.6" y="264" textLength="12.2" clip-path="url(#terminal-line-10)">┃</text><text class="terminal-r1" x="1220" y="264" textLength="12.2" clip-path="url(#terminal-line-10)">
</text><text class="terminal-r2" x="12.2" y="288.4" textLength="585.6" clip-path="url(#terminal-line-11)">┗━━━━━━━━━━━━━━━━━━━━━━━━━━━━━━━━━&#160;→&#160;aspect&#160;3&#160;━┛</text><text class="terminal-r1" x="1220" y="288.4" textLength="12.2" clip-path="url(#terminal-line-11)">
</text><text class="terminal-r1" x="1220" y="312.8" textLength="12.2" clip-path="url(#terminal-line-12)">
</text><text class="terminal-r7" x="12.2" y="337.2" textLength="1195.6" clip-path="url(#terminal-line-13)">╭────────────────────────────────────────────────────────────────────────────────────────────────╮</text><text class="terminal-r1" x="1220" y="337.2" textLength="12.2" clip-path="url(#terminal-line-13)">
</text><text class="terminal-r7" x="12.2" y="361.6" textLength="12.2" clip-path="url(#terminal-line-14)">│</text><text class="terminal-r3" x="36.6" y="361.6" textLength="329.4" clip-path="url(#terminal-line-14)">Components&#160;aboard&#160;your&#160;ship</text><text class="terminal-r7" x="1195.6" y="361.6" textLength="12.2" clip-path="url(#terminal-line-14)">│</text><text class="terminal-r1" x="1220" y="361.6" textLength="12.2" clip-path="url(#terminal-line-14)">
</text><text class="terminal-r7" x="12.2" y="386" textLength="12.2" clip-path="url(#terminal-line-15)">│</text><text class="terminal-r8" x="48.8" y="386" textLength="329.4" clip-path="url(#terminal-line-15)">No&#160;loose&#160;components&#160;aboard.</text><text class="terminal-r7" x="1195.6" y="386" textLength="12.2" clip-path="url(#terminal-line-15)">│</text><text class="terminal-r1" x="1220" y="386" textLength="12.2" clip-path="url(#terminal-line-15)">
</text><text class="terminal-r7" x="12.2" y="410.4" textLength="12.2" clip-path="url(#terminal-line-16)">│</text><text class="terminal-r9" x="48.8" y="410.4" textLength="866.2" clip-path="url(#terminal-line-16)">Buy&#160;parts&#160;at&#160;a&#160;hardware&#160;emporium&#160;or&#160;salvage&#160;them&#160;from&#160;wrecks&#160;and&#160;bases.</text><text class="terminal-r7" x="1195.6" y="410.4" textLength="12.2" clip-path="url(#terminal-line-16)">│</text><text class="terminal-r1" x="1220" y="410.4" textLength="12.2" clip-path="url(#terminal-line-16)">
</text><text class="terminal-r7" x="12.2" y="434.8" textLength="1195.6" clip-path="url(#terminal-line-17)">╰────────────────────────────────────────────────────────────────────────────────────────────────╯</text><text class="terminal-r1" x="1220" y="434.8" textLength="12.2" clip-path="url(#terminal-line-17)">
</text><text class="terminal-r1" x="1220" y="459.2" textLength="12.2" clip-path="url(#terminal-line-18)">
</text><text class="terminal-r9" x="12.2" y="483.6" textLength="1049.2" clip-path="url(#terminal-line-19)">Select&#160;a&#160;ship&#160;component&#160;+&#160;empty&#160;installation&#160;slot&#160;to&#160;repair,&#160;or&#160;a&#160;live&#160;slot&#160;to&#160;salvage</text><text class="terminal-r1" x="1220" y="483.6" textLength="12.2" clip-path="url(#terminal-line-19)">
</text><text class="terminal-r1" x="1220" y="508" textLength="12.2" clip-path="url(#terminal-line-20)">
</text><text class="terminal-r1" x="1220" y="532.4" textLength="12.2" clip-path="url(#terminal-line-21)">
</text><text class="terminal-r1" x="1220" y="556.8" textLength="12.2" clip-path="url(#terminal-line-22)">
</text><text class="terminal-r1" x="1220" y="581.2" textLength="12.2" clip-path="url(#terminal-line-23)">
</text><text class="terminal-r1" x="1220" y="605.6" textLength="12.2" clip-path="url(#terminal-line-24)">
</text><text class="terminal-r1" x="1220" y="630" textLength="12.2" clip-path="url(#terminal-line-25)">
</text><text class="terminal-r1" x="1220" y="654.4" textLength="12.2" clip-path="url(#terminal-line-26)">
</text><text class="terminal-r1" x="1220" y="678.8" textLength="12.2" clip-path="url(#terminal-line-27)">
</text><text class="terminal-r1" x="1220" y="703.2" textLength="12.2" clip-path="url(#terminal-line-28)">
</text><text class="terminal-r1" x="1220" y="727.6" textLength="12.2" clip-path="url(#terminal-line-29)">
</text><text class="terminal-r1" x="1220" y="752" textLength="12.2" clip-path="url(#terminal-line-30)">
</text><text class="terminal-r1" x="1220" y="776.4" textLength="12.2" clip-path="url(#terminal-line-31)">
</text><text class="terminal-r1" x="1220" y="800.8" textLength="12.2" clip-path="url(#terminal-line-32)">
</text>
    </g>
    </g>
</svg>
