<svg class="rich-terminal" viewBox="0 0 994 635.5999999999999" xmlns="http://www.w3.org/2000/svg">
    <!-- Generated with Rich https://www.textualize.io -->
    <style>

    @font-face {
        font-family: "Fira Code";
        src: local("FiraCode-Regular"),
                url("https://cdnjs.cloudflare.com/ajax/libs/firacode/6.2.0/woff2/FiraCode-Regular.woff2") format("woff2"),
                url("https://cdnjs.cloudflare.com/ajax/libs/firacode/6.2.0/woff/FiraCode-Regular.woff") format("woff");
        font-style: normal;
        font-weight: 400;
    }
    @font-face {
        font-family: "Fira Code";
        src: local("FiraCode-Bold"),
                url("https://cdnjs.cloudflare.com/ajax/libs/firacode/6.2.0/woff2/FiraCode-Bold.woff2") format("woff2"),
                url("https://cdnjs.cloudflare.com/ajax/libs/firacode/6.2.0/woff/FiraCode-Bold.woff") format("woff");
        font-style: bold;
        font-weight: 700;
    }

    .terminal-matrix {
        font-family: Fira Code, monospace;
        font-size: 20px;
        line-height: 24.4px;
        font-variant-east-asian: full-width;
    }

    .terminal-title {
        font-size: 18px;
        font-weight: bold;
        font-family: arial;
    }

    .terminal-r1 { fill: #c5c8c6 }
.terminal-r2 { fill: #000000;font-weight: bold }
.terminal-r3 { fill: #e6e6e6 }
.terminal-r4 { fill: #ff0000 }
.terminal-r5 { fill: #dadada }
.terminal-r6 { fill: #949494 }
.terminal-r7 { fill: #262626 }
.terminal-r8 { fill: #ffff00 }
.terminal-r9 { fill: #808000 }
.terminal-r10 { fill: #000000 }
.terminal-r11 { fill: #35d7d7 }
.terminal-r12 { fill: #808385 }
.terminal-r13 { fill: #e6e6e6;font-weight: bold }
.terminal-r14 { fill: #008000 }
.terminal-r15 { fill: #646464 }
.terminal-r16 { fill: #35d7d7;font-weight: bold }
.terminal-r17 { fill: #40484d }
    </style>

    <defs>
    <clipPath id="terminal-clip-terminal">
      <rect x="0" y="0" width="975.0" height="584.5999999999999" />
    </clipPath>
    <clipPath id="terminal-line-0">
    <rect x="0" y="1.5" width="976" height="24.65"/>
            </clipPath>
<clipPath id="terminal-line-1">
    <rect x="0" y="25.9" width="976" height="24.65"/>
            </clipPath>
<clipPath id="terminal-line-2">
    <rect x="0" y="50.3" width="976" height="24.65"/>
            </clipPath>
<clipPath id="terminal-line-3">
    <rect x="0" y="74.7" width="976" height="24.65"/>
            </clipPath>
<clipPath id="terminal-line-4">
    <rect x="0" y="99.1" width="976" height="24.65"/>
            </clipPath>
<clipPath id="terminal-line-5">
    <rect x="0" y="123.5" width="976" height="24.65"/>
            </clipPath>
<clipPath id="terminal-line-6">
    <rect x="0" y="147.9" width="976" height="24.65"/>
            </clipPath>
<clipPath id="terminal-line-7">
    <rect x="0" y="172.3" width="976" height="24.65"/>
            </clipPath>
<clipPath id="terminal-line-8">
    <rect x="0" y="196.7" width="976" height="24.65"/>
            </clipPath>
<clipPath id="terminal-line-9">
    <rect x="0" y="221.1" width="976" height="24.65"/>
            </clipPath>
<clipPath id="terminal-line-10">
    <rect x="0" y="245.5" width="976" height="24.65"/>
            </clipPath>
<clipPath id="terminal-line-11">
    <rect x="0" y="269.9" width="976" height="24.65"/>
            </clipPath>
<clipPath id="terminal-line-12">
    <rect x="0" y="294.3" width="976" height="24.65"/>
            </clipPath>
<clipPath id="terminal-line-13">
    <rect x="0" y="318.7" width="976" height="24.65"/>
            </clipPath>
<clipPath id="terminal-line-14">
    <rect x="0" y="343.1" width="976" height="24.65"/>
            </clipPath>
<clipPath id="terminal-line-15">
    <rect x="0" y="367.5" width="976" height="24.65"/>
            </clipPath>
<clipPath id="terminal-line-16">
    <rect x="0" y="391.9" width="976" height="24.65"/>
            </clipPath>
<clipPath id="terminal-line-17">
    <rect x="0" y="416.3" width="976" height="24.65"/>
            </clipPath>
<clipPath id="terminal-line-18">
    <rect x="0" y="440.7" width="976" height="24.65"/>
            </clipPath>
<clipPath id="terminal-line-19">
    <rect x="0" y="465.1" width="976" height="24.65"/>
            </clipPath>
<clipPath id="terminal-line-20">
    <rect x="0" y="489.5" width="976" height="24.65"/>
            </clipPath>
<clipPath id="terminal-line-21">
    <rect x="0" y="513.9" width="976" height="24.65"/>
            </clipPath>
<clipPath id="terminal-line-22">
    <rect x="0" y="538.3" width="976" height="24.65"/>
            </clipPath>
    </defs>

    <rect fill="#292929" stroke="rgba(255,255,255,0.35)" stroke-width="1" x="1" y="1" width="992" height="633.6" rx="8"/><text class="terminal-title" fill="#c5c8c6" text-anchor="middle" x="496" y="27">Edge&#160;of&#160;the&#160;Unknown</text>
            <g transform="translate(26,22)">
            <circle cx="0" cy="0" r="7" fill="#ff5f57"/>
            <circle cx="22" cy="0" r="7" fill="#febc2e"/>
            <circle cx="44" cy="0" r="7" fill="#28c840"/>
            </g>
        
    <g transform="translate(9, 41)" clip-path="url(#terminal-clip-terminal)">
    <rect fill="#35d7d7" x="0" y="1.5" width="12.2" height="24.65" shape-rendering="crispEdges"/><rect fill="#35d7d7" x="12.2" y="1.5" width="280.6" height="24.65" shape-rendering="crispEdges"/><rect fill="#35d7d7" x="292.8" y="1.5" width="683.2" height="24.65" shape-rendering="crispEdges"/><rect fill="#000000" x="0" y="25.9" width="378.2" height="24.65" shape-rendering="crispEdges"/><rect fill="#000000" x="378.2" y="25.9" width="97.6" height="24.65" shape-rendering="crispEdges"/><rect fill="#000000" x="475.8" y="25.9" width="12.2" height="24.65" shape-rendering="crispEdges"/><rect fill="#000000" x="488" y="25.9" width="109.8" height="24.65" shape-rendering="crispEdges"/><rect fill="#000000" x="597.8" y="25.9" width="378.2" height="24.65" shape-rendering="crispEdges"/><rect fill="#000000" x="0" y="50.3" width="378.2" height="24.65" shape-rendering="crispEdges"/><rect fill="#000000" x="378.2" y="50.3" width="97.6" height="24.65" shape-rendering="crispEdges"/><rect fill="#000000" x="475.8" y="50.3" width="12.2" height="24.65" shape-rendering="crispEdges"/><rect fill="#000000" x="488" y="50.3" width="109.8" height="24.65" shape-rendering="crispEdges"/><rect fill="#000000" x="597.8" y="50.3" width="378.2" height="24.65" shape-rendering="crispEdges"/><rect fill="#000000" x="0" y="74.7" width="378.2" height="24.65" shape-rendering="crispEdges"/><rect fill="#000000" x="378.2" y="74.7" width="85.4" height="24.65" shape-rendering="crispEdges"/><rect fill="#000000" x="463.6" y="74.7" width="12.2" height="24.65" shape-rendering="crispEdges"/><rect fill="#000000" x="475.8" y="74.7" width="12.2" height="24.65" shape-rendering="crispEdges"/><rect fill="#000000" x="488" y="74.7" width="12.2" height="24.65" shape-rendering="crispEdges"/><rect fill="#000000" x="500.2" y="74.7" width="97.6" height="24.65" shape-rendering="crispEdges"/><rect fill="#000000" x="597.8" y="74.7" width="378.2" height="24.65" shape-rendering="crispEdges"/><rect fill="#000000" x="0" y="99.1" width="378.2" height="24.65" shape-rendering="crispEdges"/><rect fill="#000000" x="378.2" y="99.1" width="61" height="24.65" shape-rendering="crispEdges"/><rect fill="#000000" x="439.2" y="99.1" width="12.2" height="24.65" shape-rendering="crispEdges"/><rect fill="#000000" x="451.4" y="99.1" width="12.2" height="24.65" shape-rendering="crispEdges"/><rect fill="#000000" x="463.6" y="99.1" width="12.2" height="24.65" shape-rendering="crispEdges"/><rect fill="#000000" x="475.8" y="99.1" width="12.2" height="24.65" shape-rendering="crispEdges"/><rect fill="#000000" x="488" y="99.1" width="12.2" height="24.65" shape-rendering="crispEdges"/><rect fill="#000000" x="500.2" y="99.1" width="12.2" height="24.65" shape-rendering="crispEdges"/><rect fill="#000000" x="512.4" y="99.1" width="12.2" height="24.65" shape-rendering="crispEdges"/><rect fill="#000000" x="524.6" y="99.1" width="73.2" height="24.65" shape-rendering="crispEdges"/><rect fill="#000000" x="597.8" y="99.1" width="378.2" height="24.65" shape-rendering="crispEdges"/><rect fill="#000000" x="0" y="123.5" width="378.2" height="24.65" shape-rendering="crispEdges"/><rect fill="#000000" x="378.2" y="123.5" width="12.2" height="24.65" shape-rendering="crispEdges"/><rect fill="#000000" x="390.4" y="123.5" width="12.2" height="24.65" shape-rendering="crispEdges"/><rect fill="#000000" x="402.6" y="123.5" width="12.2" height="24.65" shape-rendering="crispEdges"/><rect fill="#000000" x="414.8" y="123.5" width="12.2" height="24.65" shape-rendering="crispEdges"/><rect fill="#000000" x="427" y="123.5" width="12.2" height="24.65" shape-rendering="crispEdges"/><rect fill="#000000" x="439.2" y="123.5" width="12.2" height="24.65" shape-rendering="crispEdges"/><rect fill="#000000" x="451.4" y="123.5" width="12.2" height="24.65" shape-rendering="crispEdges"/><rect fill="#000000" x="463.6" y="123.5" width="12.2" height="24.65" shape-rendering="crispEdges"/><rect fill="#000000" x="475.8" y="123.5" width="12.2" height="24.65" shape-rendering="crispEdges"/><rect fill="#000000" x="488" y="123.5" width="12.2" height="24.65" shape-rendering="crispEdges"/><rect fill="#000000" x="500.2" y="123.5" width="12.2" height="24.65" shape-rendering="crispEdges"/><rect fill="#000000" x="512.4" y="123.5" width="12.2" height="24.65" shape-rendering="crispEdges"/><rect fill="#000000" x="524.6" y="123.5" width="12.2" height="24.65" shape-rendering="crispEdges"/><rect fill="#000000" x="536.8" y="123.5" width="12.2" height="24.65" shape-rendering="crispEdges"/><rect fill="#000000" x="549" y="123.5" width="12.2" height="24.65" shape-rendering="crispEdges"/><rect fill="#000000" x="561.2" y="123.5" width="12.2" height="24.65" shape-rendering="crispEdges"/><rect fill="#000000" x="573.4" y="123.5" width="24.4" height="24.65" shape-rendering="crispEdges"/><rect fill="#000000" x="597.8" y="123.5" width="378.2" height="24.65" shape-rendering="crispEdges"/><rect fill="#000000" x="0" y="147.9" width="378.2" height="24.65" shape-rendering="crispEdges"/><rect fill="#000000" x="378.2" y="147.9" width="61" height="24.65" shape-rendering="crispEdges"/><rect fill="#000000" x="439.2" y="147.9" width="12.2" height="24.65" shape-rendering="crispEdges"/><rect fill="#000000" x="451.4" y="147.9" width="12.2" height="24.65" shape-rendering="crispEdges"/><rect fill="#000000" x="463.6" y="147.9" width="12.2" height="24.65" shape-rendering="crispEdges"/><rect fill="#dadada" x="475.8" y="147.9" width="12.2" height="24.65" shape-rendering="crispEdges"/><rect fill="#000000" x="488" y="147.9" width="12.2" height="24.65" shape-rendering="crispEdges"/><rect fill="#000000" x="500.2" y="147.9" width="12.2" height="24.65" shape-rendering="crispEdges"/><rect fill="#000000" x="512.4" y="147.9" width="12.2" height="24.65" shape-rendering="crispEdges"/><rect fill="#000000" x="524.6" y="147.9" width="73.2" height="24.65" shape-rendering="crispEdges"/><rect fill="#000000" x="597.8" y="147.9" width="378.2" height="24.65" shape-rendering="crispEdges"/><rect fill="#000000" x="0" y="172.3" width="378.2" height="24.65" shape-rendering="crispEdges"/><rect fill="#000000" x="378.2" y="172.3" width="73.2" height="24.65" shape-rendering="crispEdges"/><rect fill="#000000" x="451.4" y="172.3" width="12.2" height="24.65" shape-rendering="crispEdges"/><rect fill="#000000" x="463.6" y="172.3" width="12.2" height="24.65" shape-rendering="crispEdges"/><rect fill="#000000" x="475.8" y="172.3" width="12.2" height="24.65" shape-rendering="crispEdges"/><rect fill="#000000" x="488" y="172.3" width="12.2" height="24.65" shape-rendering="crispEdges"/><rect fill="#000000" x="500.2" y="172.3" width="12.2" height="24.65" shape-rendering="crispEdges"/><rect fill="#000000" x="512.4" y="172.3" width="85.4" height="24.65" shape-rendering="crispEdges"/><rect fill="#000000" x="597.8" y="172.3" width="378.2" height="24.65" shape-rendering="crispEdges"/><rect fill="#000000" x="0" y="196.7" width="378.2" height="24.65" shape-rendering="crispEdges"/><rect fill="#000000" x="378.2" y="196.7" width="97.6" height="24.65" shape-rendering="crispEdges"/><rect fill="#000000" x="475.8" y="196.7" width="12.2" height="24.65" shape-rendering="crispEdges"/><rect fill="#000000" x="488" y="196.7" width="109.8" height="24.65" shape-rendering="crispEdges"/><rect fill="#000000" x="597.8" y="196.7" width="378.2" height="24.65" shape-rendering="crispEdges"/><rect fill="#000000" x="0" y="221.1" width="12.2" height="24.65" shape-rendering="crispEdges"/><rect fill="#35d7d7" x="12.2" y="221.1" width="12.2" height="24.65" shape-rendering="crispEdges"/><rect fill="#1a2125" x="24.4" y="221.1" width="927.2" height="24.65" shape-rendering="crispEdges"/><rect fill="#000000" x="951.6" y="221.1" width="12.2" height="24.65" shape-rendering="crispEdges"/><rect fill="#000000" x="963.8" y="221.1" width="12.2" height="24.65" shape-rendering="crispEdges"/><rect fill="#000000" x="0" y="245.5" width="12.2" height="24.65" shape-rendering="crispEdges"/><rect fill="#35d7d7" x="12.2" y="245.5" width="12.2" height="24.65" shape-rendering="crispEdges"/><rect fill="#1a2125" x="24.4" y="245.5" width="24.4" height="24.65" shape-rendering="crispEdges"/><rect fill="#1a2125" x="48.8" y="245.5" width="73.2" height="24.65" shape-rendering="crispEdges"/><rect fill="#1a2125" x="122" y="245.5" width="793" height="24.65" shape-rendering="crispEdges"/><rect fill="#1a2125" x="915" y="245.5" width="12.2" height="24.65" shape-rendering="crispEdges"/><rect fill="#1a2125" x="927.2" y="245.5" width="24.4" height="24.65" shape-rendering="crispEdges"/><rect fill="#000000" x="951.6" y="245.5" width="12.2" height="24.65" shape-rendering="crispEdges"/><rect fill="#000000" x="963.8" y="245.5" width="12.2" height="24.65" shape-rendering="crispEdges"/><rect fill="#000000" x="0" y="269.9" width="12.2" height="24.65" shape-rendering="crispEdges"/><rect fill="#35d7d7" x="12.2" y="269.9" width="12.2" height="24.65" shape-rendering="crispEdges"/><rect fill="#1a2125" x="24.4" y="269.9" width="927.2" height="24.65" shape-rendering="crispEdges"/><rect fill="#000000" x="951.6" y="269.9" width="12.2" height="24.65" shape-rendering="crispEdges"/><rect fill="#000000" x="963.8" y="269.9" width="12.2" height="24.65" shape-rendering="crispEdges"/><rect fill="#000000" x="0" y="294.3" width="976" height="24.65" shape-rendering="crispEdges"/><rect fill="#000000" x="0" y="318.7" width="24.4" height="24.65" shape-rendering="crispEdges"/><rect fill="#000000" x="24.4" y="318.7" width="73.2" height="24.65" shape-rendering="crispEdges"/><rect fill="#000000" x="97.6" y="318.7" width="195.2" height="24.65" shape-rendering="crispEdges"/><rect fill="#000000" x="292.8" y="318.7" width="36.6" height="24.65" shape-rendering="crispEdges"/><rect fill="#000000" x="329.4" y="318.7" width="109.8" height="24.65" shape-rendering="crispEdges"/><rect fill="#000000" x="439.2" y="318.7" width="317.2" height="24.65" shape-rendering="crispEdges"/><rect fill="#000000" x="756.4" y="318.7" width="219.6" height="24.65" shape-rendering="crispEdges"/><rect fill="#000000" x="0" y="343.1" width="976" height="24.65" shape-rendering="crispEdges"/><rect fill="#000000" x="0" y="367.5" width="24.4" height="24.65" shape-rendering="crispEdges"/><rect fill="#000000" x="24.4" y="367.5" width="597.8" height="24.65" shape-rendering="crispEdges"/><rect fill="#000000" x="622.2" y="367.5" width="353.8" height="24.65" shape-rendering="crispEdges"/><rect fill="#000000" x="0" y="391.9" width="24.4" height="24.65" shape-rendering="crispEdges"/><rect fill="#000000" x="24.4" y="391.9" width="146.4" height="24.65" shape-rendering="crispEdges"/><rect fill="#000000" x="170.8" y="391.9" width="805.2" height="24.65" shape-rendering="crispEdges"/><rect fill="#000000" x="0" y="416.3" width="24.4" height="24.65" shape-rendering="crispEdges"/><rect fill="#172127" x="24.4" y="416.3" width="231.8" height="24.65" shape-rendering="crispEdges"/><rect fill="#172127" x="256.2" y="416.3" width="97.6" height="24.65" shape-rendering="crispEdges"/><rect fill="#172127" x="353.8" y="416.3" width="427" height="24.65" shape-rendering="crispEdges"/><rect fill="#172127" x="780.8" y="416.3" width="85.4" height="24.65" shape-rendering="crispEdges"/><rect fill="#172127" x="866.2" y="416.3" width="85.4" height="24.65" shape-rendering="crispEdges"/><rect fill="#000000" x="951.6" y="416.3" width="24.4" height="24.65" shape-rendering="crispEdges"/><rect fill="#000000" x="0" y="440.7" width="24.4" height="24.65" shape-rendering="crispEdges"/><rect fill="#1b5053" x="24.4" y="440.7" width="231.8" height="24.65" shape-rendering="crispEdges"/><rect fill="#1b5053" x="256.2" y="440.7" width="97.6" height="24.65" shape-rendering="crispEdges"/><rect fill="#1b5053" x="353.8" y="440.7" width="427" height="24.65" shape-rendering="crispEdges"/><rect fill="#1b5053" x="780.8" y="440.7" width="85.4" height="24.65" shape-rendering="crispEdges"/><rect fill="#1b5053" x="866.2" y="440.7" width="85.4" height="24.65" shape-rendering="crispEdges"/><rect fill="#000000" x="951.6" y="440.7" width="24.4" height="24.65" shape-rendering="crispEdges"/><rect fill="#000000" x="0" y="465.1" width="976" height="24.65" shape-rendering="crispEdges"/><rect fill="#000000" x="0" y="489.5" width="24.4" height="24.65" shape-rendering="crispEdges"/><rect fill="#000000" x="24.4" y="489.5" width="402.6" height="24.65" shape-rendering="crispEdges"/><rect fill="#000000" x="427" y="489.5" width="549" height="24.65" shape-rendering="crispEdges"/><rect fill="#000000" x="0" y="513.9" width="976" height="24.65" shape-rendering="crispEdges"/><rect fill="#000000" x="0" y="538.3" width="24.4" height="24.65" shape-rendering="crispEdges"/><rect fill="#000000" x="24.4" y="538.3" width="585.6" height="24.65" shape-rendering="crispEdges"/><rect fill="#000000" x="610" y="538.3" width="366" height="24.65" shape-rendering="crispEdges"/><rect fill="#172127" x="0" y="562.7" width="61" height="24.65" shape-rendering="crispEdges"/><rect fill="#172127" x="61" y="562.7" width="85.4" height="24.65" shape-rendering="crispEdges"/><rect fill="#172127" x="146.4" y="562.7" width="36.6" height="24.65" shape-rendering="crispEdges"/><rect fill="#172127" x="183" y="562.7" width="73.2" height="24.65" shape-rendering="crispEdges"/><rect fill="#172127" x="256.2" y="562.7" width="36.6" height="24.65" shape-rendering="crispEdges"/><rect fill="#172127" x="292.8" y="562.7" width="85.4" height="24.65" shape-rendering="crispEdges"/><rect fill="#172127" x="378.2" y="562.7" width="36.6" height="24.65" shape-rendering="crispEdges"/><rect fill="#172127" x="414.8" y="562.7" width="48.8" height="24.65" shape-rendering="crispEdges"/><rect fill="#172127" x="463.6" y="562.7" width="36.6" height="24.65" shape-rendering="crispEdges"/><rect fill="#172127" x="500.2" y="562.7" width="146.4" height="24.65" shape-rendering="crispEdges"/><rect fill="#172127" x="646.6" y="562.7" width="36.6" height="24.65" shape-rendering="crispEdges"/><rect fill="#172127" x="683.2" y="562.7" width="73.2" height="24.65" shape-rendering="crispEdges"/><rect fill="#172127" x="756.4" y="562.7" width="36.6" height="24.65" shape-rendering="crispEdges"/><rect fill="#172127" x="793" y="562.7" width="36.6" height="24.65" shape-rendering="crispEdges"/><rect fill="#172127" x="829.6" y="562.7" width="12.2" height="24.65" shape-rendering="crispEdges"/><rect fill="#172127" x="841.8" y="562.7" width="24.4" height="24.65" shape-rendering="crispEdges"/><rect fill="#172127" x="866.2" y="562.7" width="97.6" height="24.65" shape-rendering="crispEdges"/><rect fill="#172127" x="963.8" y="562.7" width="12.2" height="24.65" shape-rendering="crispEdges"/>
    <g class="terminal-matrix">
    <text class="terminal-r2" x="12.2" y="20" textLength="280.6" clip-path="url(#terminal-line-0)">STARDOCK&#160;·&#160;Sector&#160;10107</text><text class="terminal-r1" x="976" y="20" textLength="12.2" clip-path="url(#terminal-line-0)">
</text><text class="terminal-r4" x="475.8" y="44.4" textLength="12.2" clip-path="url(#terminal-line-1)">▀</text><text class="terminal-r1" x="976" y="44.4" textLength="12.2" clip-path="url(#terminal-line-1)">
</text><text class="terminal-r5" x="475.8" y="68.8" textLength="12.2" clip-path="url(#terminal-line-2)">█</text><text class="terminal-r1" x="976" y="68.8" textLength="12.2" clip-path="url(#terminal-line-2)">
</text><text class="terminal-r5" x="463.6" y="93.2" textLength="12.2" clip-path="url(#terminal-line-3)">█</text><text class="terminal-r5" x="475.8" y="93.2" textLength="12.2" clip-path="url(#terminal-line-3)">█</text><text class="terminal-r5" x="488" y="93.2" textLength="12.2" clip-path="url(#terminal-line-3)">█</text><text class="terminal-r1" x="976" y="93.2" textLength="12.2" clip-path="url(#terminal-line-3)">
</text><text class="terminal-r6" x="439.2" y="117.6" textLength="12.2" clip-path="url(#terminal-line-4)">▟</text><text class="terminal-r5" x="451.4" y="117.6" textLength="12.2" clip-path="url(#terminal-line-4)">█</text><text class="terminal-r5" x="463.6" y="117.6" textLength="12.2" clip-path="url(#terminal-line-4)">█</text><text class="terminal-r5" x="475.8" y="117.6" textLength="12.2" clip-path="url(#terminal-line-4)">█</text><text class="terminal-r5" x="488" y="117.6" textLength="12.2" clip-path="url(#terminal-line-4)">█</text><text class="terminal-r5" x="500.2" y="117.6" textLength="12.2" clip-path="url(#terminal-line-4)">█</text><text class="terminal-r6" x="512.4" y="117.6" textLength="12.2" clip-path="url(#terminal-line-4)">▙</text><text class="terminal-r1" x="976" y="117.6" textLength="12.2" clip-path="url(#terminal-line-4)">
</text><text class="terminal-r6" x="390.4" y="142" textLength="12.2" clip-path="url(#terminal-line-5)">╾</text><text class="terminal-r6" x="402.6" y="142" textLength="12.2" clip-path="url(#terminal-line-5)">─</text><text class="terminal-r6" x="414.8" y="142" textLength="12.2" clip-path="url(#terminal-line-5)">▓</text><text class="terminal-r5" x="427" y="142" textLength="12.2" clip-path="url(#terminal-line-5)">█</text><text class="terminal-r5" x="439.2" y="142" textLength="12.2" clip-path="url(#terminal-line-5)">█</text><text class="terminal-r5" x="451.4" y="142" textLength="12.2" clip-path="url(#terminal-line-5)">█</text><text class="terminal-r5" x="463.6" y="142" textLength="12.2" clip-path="url(#terminal-line-5)">█</text><text class="terminal-r5" x="475.8" y="142" textLength="12.2" clip-path="url(#terminal-line-5)">█</text><text class="terminal-r5" x="488" y="142" textLength="12.2" clip-path="url(#terminal-line-5)">█</text><text class="terminal-r5" x="500.2" y="142" textLength="12.2" clip-path="url(#terminal-line-5)">█</text><text class="terminal-r5" x="512.4" y="142" textLength="12.2" clip-path="url(#terminal-line-5)">█</text><text class="terminal-r5" x="524.6" y="142" textLength="12.2" clip-path="url(#terminal-line-5)">█</text><text class="terminal-r6" x="536.8" y="142" textLength="12.2" clip-path="url(#terminal-line-5)">▓</text><text class="terminal-r6" x="549" y="142" textLength="12.2" clip-path="url(#terminal-line-5)">─</text><text class="terminal-r6" x="561.2" y="142" textLength="12.2" clip-path="url(#terminal-line-5)">╼</text><text class="terminal-r1" x="976" y="142" textLength="12.2" clip-path="url(#terminal-line-5)">
</text><text class="terminal-r6" x="439.2" y="166.4" textLength="12.2" clip-path="url(#terminal-line-6)">▜</text><text class="terminal-r5" x="451.4" y="166.4" textLength="12.2" clip-path="url(#terminal-line-6)">█</text><text class="terminal-r5" x="463.6" y="166.4" textLength="12.2" clip-path="url(#terminal-line-6)">█</text><text class="terminal-r7" x="475.8" y="166.4" textLength="12.2" clip-path="url(#terminal-line-6)">≡</text><text class="terminal-r5" x="488" y="166.4" textLength="12.2" clip-path="url(#terminal-line-6)">█</text><text class="terminal-r5" x="500.2" y="166.4" textLength="12.2" clip-path="url(#terminal-line-6)">█</text><text class="terminal-r6" x="512.4" y="166.4" textLength="12.2" clip-path="url(#terminal-line-6)">▛</text><text class="terminal-r1" x="976" y="166.4" textLength="12.2" clip-path="url(#terminal-line-6)">
</text><text class="terminal-r6" x="451.4" y="190.8" textLength="12.2" clip-path="url(#terminal-line-7)">▓</text><text class="terminal-r5" x="463.6" y="190.8" textLength="12.2" clip-path="url(#terminal-line-7)">█</text><text class="terminal-r5" x="475.8" y="190.8" textLength="12.2" clip-path="url(#terminal-line-7)">█</text><text class="terminal-r8" x="488" y="190.8" textLength="12.2" clip-path="url(#terminal-line-7)">█</text><text class="terminal-r6" x="500.2" y="190.8" textLength="12.2" clip-path="url(#terminal-line-7)">▓</text><text class="terminal-r1" x="976" y="190.8" textLength="12.2" clip-path="url(#terminal-line-7)">
</text><text class="terminal-r9" x="475.8" y="215.2" textLength="12.2" clip-path="url(#terminal-line-8)">▄</text><text class="terminal-r1" x="976" y="215.2" textLength="12.2" clip-path="url(#terminal-line-8)">
</text><text class="terminal-r10" x="12.2" y="239.6" textLength="12.2" clip-path="url(#terminal-line-9)">▊</text><text class="terminal-r11" x="24.4" y="239.6" textLength="927.2" clip-path="url(#terminal-line-9)">▔▔▔▔▔▔▔▔▔▔▔▔▔▔▔▔▔▔▔▔▔▔▔▔▔▔▔▔▔▔▔▔▔▔▔▔▔▔▔▔▔▔▔▔▔▔▔▔▔▔▔▔▔▔▔▔▔▔▔▔▔▔▔▔▔▔▔▔▔▔▔▔▔▔▔▔</text><text class="terminal-r11" x="951.6" y="239.6" textLength="12.2" clip-path="url(#terminal-line-9)">▎</text><text class="terminal-r1" x="976" y="239.6" textLength="12.2" clip-path="url(#terminal-line-9)">
</text><text class="terminal-r10" x="12.2" y="264" textLength="12.2" clip-path="url(#terminal-line-10)">▊</text><text class="terminal-r3" x="48.8" y="264" textLength="73.2" clip-path="url(#terminal-line-10)">Tavern</text><text class="terminal-r12" x="915" y="264" textLength="12.2" clip-path="url(#terminal-line-10)">▼</text><text class="terminal-r11" x="951.6" y="264" textLength="12.2" clip-path="url(#terminal-line-10)">▎</text><text class="terminal-r1" x="976" y="264" textLength="12.2" clip-path="url(#terminal-line-10)">
</text><text class="terminal-r10" x="12.2" y="288.4" textLength="12.2" clip-path="url(#terminal-line-11)">▊</text><text class="terminal-r11" x="24.4" y="288.4" textLength="927.2" clip-path="url(#terminal-line-11)">▁▁▁▁▁▁▁▁▁▁▁▁▁▁▁▁▁▁▁▁▁▁▁▁▁▁▁▁▁▁▁▁▁▁▁▁▁▁▁▁▁▁▁▁▁▁▁▁▁▁▁▁▁▁▁▁▁▁▁▁▁▁▁▁▁▁▁▁▁▁▁▁▁▁▁▁</text><text class="terminal-r11" x="951.6" y="288.4" textLength="12.2" clip-path="url(#terminal-line-11)">▎</text><text class="terminal-r1" x="976" y="288.4" textLength="12.2" clip-path="url(#terminal-line-11)">
</text><text class="terminal-r1" x="976" y="312.8" textLength="12.2" clip-path="url(#terminal-line-12)">
</text><text class="terminal-r13" x="24.4" y="337.2" textLength="73.2" clip-path="url(#terminal-line-13)">TAVERN</text><text class="terminal-r3" x="97.6" y="337.2" textLength="195.2" clip-path="url(#terminal-line-13)">&#160;&#160;&#160;&#160;&#160;&#160;&#160;&#160;rumour:&#160;</text><text class="terminal-r8" x="292.8" y="337.2" textLength="36.6" clip-path="url(#terminal-line-13)">500</text><text class="terminal-r3" x="329.4" y="337.2" textLength="109.8" clip-path="url(#terminal-line-13)">&#160;slips&#160;—&#160;</text><text class="terminal-r14" x="439.2" y="337.2" textLength="317.2" clip-path="url(#terminal-line-13)">a&#160;fresh&#160;rumour&#160;is&#160;on&#160;offer</text><text class="terminal-r1" x="976" y="337.2" textLength="12.2" clip-path="url(#terminal-line-13)">
</text><text class="terminal-r1" x="976" y="361.6" textLength="12.2" clip-path="url(#terminal-line-14)">
</text><text class="terminal-r15" x="24.4" y="386" textLength="597.8" clip-path="url(#terminal-line-15)">R&#160;buys&#160;a&#160;rumour&#160;(logs&#160;a&#160;lead).&#160;&#160;N&#160;posts&#160;a&#160;notice.</text><text class="terminal-r1" x="976" y="386" textLength="12.2" clip-path="url(#terminal-line-15)">
</text><text class="terminal-r13" x="24.4" y="410.4" textLength="146.4" clip-path="url(#terminal-line-16)">BOUNTY&#160;BOARD</text><text class="terminal-r1" x="976" y="410.4" textLength="12.2" clip-path="url(#terminal-line-16)">
</text><text class="terminal-r13" x="24.4" y="434.8" textLength="231.8" clip-path="url(#terminal-line-17)">&#160;Target&#160;&#160;&#160;&#160;&#160;&#160;&#160;&#160;&#160;&#160;&#160;&#160;</text><text class="terminal-r13" x="256.2" y="434.8" textLength="97.6" clip-path="url(#terminal-line-17)">&#160;Type&#160;&#160;&#160;</text><text class="terminal-r13" x="353.8" y="434.8" textLength="427" clip-path="url(#terminal-line-17)">&#160;Reward&#160;/&#160;threat&#160;&#160;&#160;&#160;&#160;&#160;&#160;&#160;&#160;&#160;&#160;&#160;&#160;&#160;&#160;&#160;&#160;&#160;&#160;</text><text class="terminal-r13" x="780.8" y="434.8" textLength="85.4" clip-path="url(#terminal-line-17)">&#160;Where&#160;</text><text class="terminal-r1" x="976" y="434.8" textLength="12.2" clip-path="url(#terminal-line-17)">
</text><text class="terminal-r3" x="24.4" y="459.2" textLength="231.8" clip-path="url(#terminal-line-18)">&#160;◆&#160;Core&#160;governance&#160;</text><text class="terminal-r3" x="256.2" y="459.2" textLength="97.6" clip-path="url(#terminal-line-18)">&#160;Notice&#160;</text><text class="terminal-r3" x="353.8" y="459.2" textLength="427" clip-path="url(#terminal-line-18)">&#160;Core&#160;governor:&#160;Terran&#160;Federation.&#160;</text><text class="terminal-r3" x="780.8" y="459.2" textLength="85.4" clip-path="url(#terminal-line-18)">&#160;—&#160;&#160;&#160;&#160;&#160;</text><text class="terminal-r1" x="976" y="459.2" textLength="12.2" clip-path="url(#terminal-line-18)">
</text><text class="terminal-r1" x="976" y="483.6" textLength="12.2" clip-path="url(#terminal-line-19)">
</text><text class="terminal-r15" x="24.4" y="508" textLength="402.6" clip-path="url(#terminal-line-20)">Core&#160;governor:&#160;Terran&#160;Federation.</text><text class="terminal-r1" x="976" y="508" textLength="12.2" clip-path="url(#terminal-line-20)">
</text><text class="terminal-r1" x="976" y="532.4" textLength="12.2" clip-path="url(#terminal-line-21)">
</text><text class="terminal-r15" x="24.4" y="556.8" textLength="585.6" clip-path="url(#terminal-line-22)">●&#160;bounty&#160;to&#160;collect&#160;&#160;&#160;▲&#160;danger&#160;to&#160;you&#160;&#160;&#160;◆&#160;notice</text><text class="terminal-r1" x="976" y="556.8" textLength="12.2" clip-path="url(#terminal-line-22)">
</text><text class="terminal-r16" x="0" y="581.2" textLength="61" clip-path="url(#terminal-line-23)">&#160;esc&#160;</text><text class="terminal-r3" x="61" y="581.2" textLength="85.4" clip-path="url(#terminal-line-23)">Undock&#160;</text><text class="terminal-r16" x="146.4" y="581.2" textLength="36.6" clip-path="url(#terminal-line-23)">&#160;t&#160;</text><text class="terminal-r3" x="183" y="581.2" textLength="73.2" clip-path="url(#terminal-line-23)">Trade&#160;</text><text class="terminal-r16" x="256.2" y="581.2" textLength="36.6" clip-path="url(#terminal-line-23)">&#160;h&#160;</text><text class="terminal-r3" x="292.8" y="581.2" textLength="85.4" clip-path="url(#terminal-line-23)">Haggle&#160;</text><text class="terminal-r16" x="378.2" y="581.2" textLength="36.6" clip-path="url(#terminal-line-23)">&#160;b&#160;</text><text class="terminal-r3" x="414.8" y="581.2" textLength="48.8" clip-path="url(#terminal-line-23)">Buy&#160;</text><text class="terminal-r16" x="463.6" y="581.2" textLength="36.6" clip-path="url(#terminal-line-23)">&#160;e&#160;</text><text class="terminal-r3" x="500.2" y="581.2" textLength="146.4" clip-path="url(#terminal-line-23)">Engine&#160;room&#160;</text><text class="terminal-r16" x="646.6" y="581.2" textLength="36.6" clip-path="url(#terminal-line-23)">&#160;r&#160;</text><text class="terminal-r3" x="683.2" y="581.2" textLength="73.2" clip-path="url(#terminal-line-23)">Rumor&#160;</text><text class="terminal-r16" x="756.4" y="581.2" textLength="36.6" clip-path="url(#terminal-line-23)">&#160;n&#160;</text><text class="terminal-r3" x="793" y="581.2" textLength="36.6" clip-path="url(#terminal-line-23)">Not</text><text class="terminal-r17" x="829.6" y="581.2" textLength="12.2" clip-path="url(#terminal-line-23)">▏</text><text class="terminal-r16" x="841.8" y="581.2" textLength="24.4" clip-path="url(#terminal-line-23)">^p</text><text class="terminal-r3" x="866.2" y="581.2" textLength="97.6" clip-path="url(#terminal-line-23)">&#160;palette</text>
    </g>
    </g>
</svg>
